<svg xmlns="http://www.w3.org/2000/svg" xmlns:xlink="http://www.w3.org/1999/xlink" width="286" height="194" viewBox="0 0 286 194"><defs><style>.a{fill:#fff;}.b{clip-path:url(#e);}.c{opacity:0.1;}.d{fill:#8e8e93;stroke:rgba(0,0,0,0);}.e{fill:#ff5f00;}.f{fill:#eb001b;}.g{fill:#f79e1b;}.h,.r,.s{fill:#707070;}.h{font-size:12px;font-family:NotoSans-Medium, Noto Sans;font-weight:500;letter-spacing:0.2em;}.i{fill:#d40f14;}.j{fill-rule:evenodd;fill:url(#f);}.k{clip-path:url(#g);}.l{fill:#ffd400;}.m{fill:#ec6602;}.n{fill:#d40f13;}.o{fill:#00855a;}.p{fill:#b70d78;}.q{fill:#004f95;}.s{stroke:#707070;}.t{filter:url(#c);}.u{filter:url(#a);}</style><filter id="a" x="0" y="0" width="286" height="194" filterUnits="userSpaceOnUse"><feOffset input="SourceAlpha"/><feGaussianBlur stdDeviation="6" result="b"/><feFlood flood-opacity="0.161"/><feComposite operator="in" in2="b"/><feComposite in="SourceGraphic"/></filter><filter id="c" x="0" y="0" width="286" height="194" filterUnits="userSpaceOnUse"><feOffset input="SourceAlpha"/><feGaussianBlur stdDeviation="6" result="d"/><feFlood flood-opacity="0.161"/><feComposite operator="in" in2="d"/><feComposite in="SourceGraphic"/></filter><clipPath id="e"><rect class="a" width="250" height="158" rx="10" transform="translate(0.185)"/></clipPath><linearGradient id="f" x1="0.096" y1="1.062" x2="0.904" y2="-0.062" gradientUnits="objectBoundingBox"><stop offset="0" stop-color="#f7cc3e"/><stop offset="1" stop-color="#8e6b48"/></linearGradient><clipPath id="g"><g class="u" transform="matrix(1, 0, 0, 1, 0, 0)"><path class="a" d="M10,0H240a10,10,0,0,1,10,10V148a10,10,0,0,1-10,10H10A10,10,0,0,1,0,148V10A10,10,0,0,1,10,0Z" transform="translate(-9013.82 -2166)"/></g></clipPath></defs><g transform="translate(-684.001 -446)"><g transform="translate(9715.816 2630)"><g class="t" transform="matrix(1, 0, 0, 1, -9031.82, -2184)"><path class="a" d="M10,0H240a10,10,0,0,1,10,10V148a10,10,0,0,1-10,10H10A10,10,0,0,1,0,148V10A10,10,0,0,1,10,0Z" transform="translate(18 18)"/></g><g class="b" transform="translate(-9014 -2166)"><g class="c" transform="translate(16.046 -24.511)"><path class="d" d="M492.044,816.711c-45.042-4.3-84.9-25.919-99.677-50.862.77,4.673,6.095,14.89,8.541,21.618,1.78,4.934,4.363,8.946,5.566,12.567,18.649,13.194,40.046,20.092,69.456,22.9,30.323,2.893,56.991-.81,78.018-10.857a178.6,178.6,0,0,1-61.9,4.638" transform="translate(-387.523 -643.462)"/><path class="d" d="M447.269,803.2A568.594,568.594,0,0,1,405.786,752.7c-1.629,2.123-3.449,4.617-5.373,7.442a113.285,113.285,0,0,0-6.4,10.519c11.86,13,25,26.119,39.249,39,40.59,36.707,80.134,60.531,111.743,77.716-28.5-20.972-63.025-46.492-97.739-84.189" transform="translate(-377.846 -720.636)"/><path class="d" d="M457.779,803.794c-11.592-23.074-20.663-38.343-34.014-56.263-1.738.185-4.645,1.642-9.771,2.447-3.848.6-7.751.205-10.857,1.456,19.473,20.442,35.182,41.826,52.463,72.6,19.666,35,29.527,62.908,37.806,92.1-3.511-33.614-13.77-68.831-35.628-112.341" transform="translate(-324.281 -746.404)"/><path class="d" d="M506.209,960.91c-56.339,0-102.006-44.156-102.006-98.639s45.386-97.059,101.731-97.059c55.232,0,100.494,40.878,102.226,93.891.055-1.367.09-2.742.09-4.116,0-59.445-48.485-107.62-108.294-107.62s-108.294,48.175-108.294,107.62,48.492,107.607,108.294,107.607a108.8,108.8,0,0,0,33.4-5.222,105.684,105.684,0,0,1-27.149,3.538" transform="translate(-391.662 -747.367)"/><path class="d" d="M428.121,797.236c38.6-39.353,98.66-42.335,134.144-6.659,21.672,21.8,30.275,54.676,22.875,82.869,10.032-33.546,3.889-71.579-21.59-97.2-37.326-37.532-100.268-35.182-138.872,4.185-25.424,25.919-34.563,61.795-27.176,93.994-1.065-27.039,9.255-55.4,30.619-77.186" transform="translate(-371.927 -739.763)"/><path class="d" d="M563.477,834.2c-.316-23.679-9.366-45.585-26.015-57.047-32.2-22.153-82.223-4.83-113.4,40.713-16.141,23.576-23.679,49.639-22.758,72.37-7.139-26.654-1.257-59.693,18.34-88.319,31.183-45.536,85.233-62.646,120.731-38.226,21.026,14.465,31.244,40.466,29.252,68.563,0,0-.632,8.095-1.388,11.633-.721,3.353-2.583,10.63-3.326,12.774s-1.436-22.463-1.436-22.463" transform="translate(-352.201 -721.467)"/><path class="d" d="M430.112,781.5c-21.4,18.594-28.558,45.392-15.983,59.877,9.854,11.345,28.894,11.75,46.966,2.446-15.2,7-30.88,6.143-39.236-3.477-11.159-12.843-5.043-36.412,13.633-52.649,18.7-16.231,42.885-18.986,54.037-6.143,8.363,9.62,7.029,25.266-2.034,39.339,11.73-16.595,13.991-35.5,4.137-46.843-12.568-14.478-40.122-11.145-61.52,7.449" transform="translate(-296.16 -648.171)"/></g></g><g transform="translate(-8810.964 -2050.918)"><g transform="translate(0 0)"><g transform="translate(2.059 26.806)"><path d="M2954.719,2903.412v-2.1a1.228,1.228,0,0,0-1.326-1.326,1.376,1.376,0,0,0-1.188.594,1.219,1.219,0,0,0-1.117-.594,1.126,1.126,0,0,0-.977.489v-.419h-.733v3.352h.733v-1.85c0-.594.314-.873.8-.873s.734.314.734.873v1.85h.733v-1.85a.772.772,0,0,1,.8-.873c.487,0,.732.314.732.873v1.85Zm10.855-3.352h-1.187v-1.012h-.734v1.012h-.663v.663h.663v1.536c0,.769.315,1.223,1.152,1.223a1.948,1.948,0,0,0,.908-.245l-.21-.628a1.153,1.153,0,0,1-.629.175c-.348,0-.488-.21-.488-.559v-1.5h1.187Zm6.213-.069a.986.986,0,0,0-.873.489v-.419h-.732v3.352h.732v-1.886c0-.558.245-.872.7-.872a2.062,2.062,0,0,1,.453.069l.21-.7a2.325,2.325,0,0,0-.489-.035Zm-9.389.349a2.4,2.4,0,0,0-1.362-.349c-.837,0-1.4.419-1.4,1.081,0,.559.42.873,1.152.978l.349.035c.385.069.594.174.594.348,0,.245-.28.419-.769.419a1.921,1.921,0,0,1-1.116-.349l-.35.559a2.469,2.469,0,0,0,1.431.419c.977,0,1.535-.454,1.535-1.083,0-.593-.454-.908-1.151-1.012l-.35-.035c-.314-.036-.558-.1-.558-.315,0-.244.244-.384.627-.384a2.525,2.525,0,0,1,1.048.278Zm19.476-.349a.984.984,0,0,0-.872.489v-.419h-.734v3.352H2981v-1.886c0-.558.244-.872.7-.872a2.06,2.06,0,0,1,.454.069l.21-.7a2.329,2.329,0,0,0-.49-.035Zm-9.354,1.745a1.677,1.677,0,0,0,1.781,1.746,1.736,1.736,0,0,0,1.187-.384l-.35-.594a1.412,1.412,0,0,1-.872.315.991.991,0,0,1-1.013-1.083,1.029,1.029,0,0,1,1.013-1.082,1.412,1.412,0,0,1,.872.314l.35-.593a1.736,1.736,0,0,0-1.187-.384,1.676,1.676,0,0,0-1.781,1.745Zm6.771,0v-1.675h-.733v.419a1.262,1.262,0,0,0-1.047-.489,1.747,1.747,0,0,0,0,3.491,1.176,1.176,0,0,0,1.047-.489v.419h.733Zm-2.688,0a1.015,1.015,0,1,1,2.025,0,1.015,1.015,0,1,1-2.025,0Zm-8.761-1.745a1.746,1.746,0,0,0,.035,3.491,2.133,2.133,0,0,0,1.361-.454l-.349-.524a1.668,1.668,0,0,1-.978.349.943.943,0,0,1-1.012-.8h2.479v-.28a1.542,1.542,0,0,0-1.536-1.78Zm0,.628a.815.815,0,0,1,.838.8h-1.745a.882.882,0,0,1,.907-.8Zm18.185,1.116v-3h-.733v1.745a1.262,1.262,0,0,0-1.047-.489,1.747,1.747,0,0,0,0,3.491,1.176,1.176,0,0,0,1.047-.489v.419h.733Zm-2.687,0a1.015,1.015,0,1,1,2.025,0,1.015,1.015,0,1,1-2.025,0Zm-24.5,0v-1.675h-.733v.419a1.26,1.26,0,0,0-1.046-.489,1.747,1.747,0,0,0,0,3.491,1.175,1.175,0,0,0,1.046-.489v.419h.733Zm-2.722,0a1.014,1.014,0,1,1,2.024,0,1.014,1.014,0,1,1-2.024,0Z" transform="translate(-2949.379 -2898.734)"/></g><g transform="translate(0)"><rect class="e" width="10.995" height="19.756" transform="translate(14.834 2.688)"/><path class="f" d="M2914.266,2252.067a12.6,12.6,0,0,1,4.782-9.878,12.565,12.565,0,1,0,0,19.756A12.549,12.549,0,0,1,2914.266,2252.067Z" transform="translate(-2898.734 -2239.502)"/><path class="g" d="M3419.481,2252.067a12.552,12.552,0,0,1-20.314,9.878,12.593,12.593,0,0,0,0-19.756,12.552,12.552,0,0,1,20.314,9.878Z" transform="translate(-3378.819 -2239.502)"/></g></g></g><text class="h" transform="translate(-8997.815 -2064)"><tspan x="0" y="0">519169******2041</tspan></text><g transform="translate(-8958.11 -2110.207)"><g transform="translate(0 0)"><path class="i" d="M9.865,0H64.914a9.865,9.865,0,0,1,0,19.73H9.865A9.865,9.865,0,0,1,9.865,0"/><path class="a" d="M17.451,7A7.908,7.908,0,0,1,15.5,12.12a4.852,4.852,0,0,1-3.93,1.385H9.05L11.2,3.455h2.242c1.583,0,2.493.158,3.152.884A3.624,3.624,0,0,1,17.451,7m-1.807.04A2.828,2.828,0,0,0,15.328,5.5a1.736,1.736,0,0,0-1.688-.725H12.6l-1.556,7.359H12.07a2.707,2.707,0,0,0,2.308-1.042,8.037,8.037,0,0,0,1.266-4.049m7.821-3.587H21.777L19.627,13.5h1.7ZM33.119,5.71a3.285,3.285,0,0,1-2.994,3.363l-.145.013a4.537,4.537,0,0,1,.91,1.292c.369.712,1.147,2.822,1.227,3.06l-1.82.145c-.106-.264-.528-1.4-.659-1.728a7.62,7.62,0,0,0-1.253-2.387.639.639,0,0,0-.607-.29l-.936,4.339H25.166L27.3,3.468h3.086c1.82-.013,2.73.778,2.73,2.242m-1.78.33c0-.87-.5-1.24-1.556-1.24H28.714l-.673,3.165h.818a2.526,2.526,0,0,0,1.728-.422,2.061,2.061,0,0,0,.752-1.5m11.25-2.585H36.97L34.82,13.5H40.6l.3-1.438H36.838L37.5,8.954h3.1l.29-1.385h-3.1l.567-2.743h3.719Zm8.955.62a3.364,3.364,0,0,0-2.348-.8,5.2,5.2,0,0,0-4.023,1.991,8.232,8.232,0,0,0-1.649,4.827c0,2.229,1.266,3.574,3.4,3.574a5.325,5.325,0,0,0,3.007-.9l-.593-1.095a3.512,3.512,0,0,1-1.965.686c-1.306,0-2.031-.752-2.031-2.2a8.242,8.242,0,0,1,1.306-4.3A2.961,2.961,0,0,1,48.945,4.6a2.318,2.318,0,0,1,1.635.567Zm9.285-.62h-6.99l-.29,1.385h2.559L54.26,13.5h1.688l1.833-8.665h2.532Z" transform="translate(2.886 1.043)"/></g></g><g transform="translate(-8997.611 -2111.715)"><g transform="translate(0 0)"><path class="j" d="M31.611,19.915a2.8,2.8,0,0,1-2.8,2.8h-26a2.8,2.8,0,0,1-2.8-2.8V2.8A2.8,2.8,0,0,1,2.81,0h26a2.8,2.8,0,0,1,2.8,2.8Z" transform="translate(-0.006)"/><path d="M0,9.124H15.3V8.94H0Z" transform="translate(0 -5.369)"/><path d="M38.26,3.693V.05h-.18V3.693Z" transform="translate(-22.87 -0.03)"/><path d="M56.764,8.89H41.89v.184H56.764Z" transform="translate(-25.159 -5.339)"/><path d="M41.844,3.643V0H41.66V3.643Z" transform="translate(-25.021)"/><path d="M.01,47.5H15.367v-.18H.01Z" transform="translate(-0.006 -28.42)"/><path d="M38.23,47.55v3.7h.184v-3.7Z" transform="translate(-22.961 -28.558)"/><path d="M57.22,47.37H42.65v.18H57.22Z" transform="translate(-25.615 -28.45)"/><path d="M42.42,47.6v3.7H42.6V47.6Z" transform="translate(-25.477 -28.588)"/><path d="M15.6,19.75a3.626,3.626,0,0,0-.787.092l.04.176a3.26,3.26,0,0,1,.743-.088v-.18Zm-.763.088H.03v.18H14.836v-.18Zm0,.184h.02l-.02-.092v.092ZM.03,26.56H14.836v-.18H.03v.18Zm14.786,0a3.4,3.4,0,0,0,.787.092v-.18a3.26,3.26,0,0,1-.743-.088l-.044.176Zm.04-.176-.012,0h-.008v.092l.02-.088Zm.743.272A3.453,3.453,0,0,0,19.054,23.2H18.87A3.273,3.273,0,0,1,15.6,26.472v.18Zm0-.184h0v0ZM19.054,23.2A3.453,3.453,0,0,0,15.6,19.75v.184A3.273,3.273,0,0,1,18.87,23.2h.184Zm-.18,0ZM15.6,19.93h0v0Z" transform="translate(-0.018 -11.862)"/><path d="M47.43,28.04H60v-.18H47.43Z" transform="translate(-28.486 -16.732)"/><path d="M37.224,13.1a2.378,2.378,0,0,1-.9-1.9,3.886,3.886,0,0,1,.815-2.4l-.144-.108c-1.17,1.57-1.134,3.6.124,4.549l.108-.144Z" transform="translate(-21.707 -5.219)"/><path d="M36.924,40.835a2.363,2.363,0,0,1-.9-1.9,3.906,3.906,0,0,1,.811-2.4l-.144-.108c-1.17,1.57-1.134,3.6.124,4.549l.108-.144Z" transform="translate(-21.527 -21.88)"/></g></g><g class="k"><g transform="translate(2493.185 -542.257)"><rect class="l" width="146" height="4" transform="translate(-11507 -1469.743)"/><rect class="m" width="146" height="4" transform="translate(-11468 -1469.743)"/><rect class="n" width="145" height="4" transform="translate(-11428 -1469.743)"/><rect class="o" width="146" height="4" transform="translate(-11388 -1469.743)"/><path class="p" d="M0,0H146V4H0Z" transform="translate(-11347 -1469.743)"/><rect class="q" width="146" height="4" transform="translate(-11306 -1469.743)"/></g></g></g><g transform="translate(925.676 476.883) rotate(90)"><path class="r" d="M14.306,10.42a15.237,15.237,0,0,0-9.522,3.345.953.953,0,1,0,1.193,1.486l0,0a13.3,13.3,0,0,1,16.655.006.952.952,0,1,0,1.194-1.484l0,0a15.25,15.25,0,0,0-9.515-3.353h0Zm0,5.716A9.541,9.541,0,0,0,8.579,18.06a.953.953,0,0,0,1.151,1.519l0,0a7.576,7.576,0,0,1,9.157,0,.953.953,0,1,0,1.151-1.518l0,0a9.529,9.529,0,0,0-5.725-1.926H14.3Z" transform="translate(-4.424 -10.42)"/><path class="s" d="M11.563,16.136A5.255,5.255,0,0,0,8.41,17.2a.525.525,0,0,0,.634.837h0a4.173,4.173,0,0,1,5.044,0,.525.525,0,1,0,.634-.836h0a5.249,5.249,0,0,0-3.153-1.061h0Z" transform="translate(-1.424 -4.42)"/></g></g></svg>