<svg xmlns="http://www.w3.org/2000/svg" width="41.5" height="41.5" viewBox="0 0 41.5 41.5"><defs><style>.a{opacity:0;}.b,.c,.d,.e,.f,.g{fill:none;stroke:#fff;}.b,.c,.e,.f,.g{stroke-linecap:round;}.b{stroke-linejoin:round;}.b,.c,.e{stroke-width:1.5px;}.e,.f{stroke-miterlimit:10;}</style></defs><g transform="translate(-892.201 -509.281)"><g class="a"><circle class="b" cx="20" cy="20" r="20" transform="translate(892.951 510.031)"/></g><path class="c" d="M917.584,523.593h9.062a3.638,3.638,0,0,1,3.638,3.638h0v8.828a3.638,3.638,0,0,1-3.638,3.638H902.284C908.619,535.649,909.134,523.593,917.584,523.593Z"/><path class="d" d="M917.5,539h0a2.5,2.5,0,0,1,2.5-2.5h10"/><path class="e" d="M899.364,528.961a2.554,2.554,0,0,0-2.554,2.552h0v5.631a2.553,2.553,0,0,0,2.553,2.553H916.81"/><path class="e" d="M894.284,528.961a2.553,2.553,0,0,1,2.553,2.553"/><path class="f" d="M919.547,518.751A2.553,2.553,0,0,1,922.1,521.3"/><path class="f" d="M924.627,518.751a2.554,2.554,0,0,0-2.554,2.553"/><circle class="g" cx="1.5" cy="1.5" r="1.5" transform="translate(922.073 528.33)"/></g></svg>