<svg xmlns="http://www.w3.org/2000/svg" width="40" height="40" viewBox="0 0 40 40"><defs><style>.a{opacity:0;}.b,.c,.d,.f{fill:none;}.b,.c,.d{stroke:#fff;}.b,.c{stroke-miterlimit:10;}.c{stroke-width:1.5px;}.d{stroke-linecap:round;stroke-linejoin:round;}.e{stroke:none;}</style></defs><g transform="translate(-144.737 -125.759)"><g class="a"><g class="b" transform="translate(144.737 125.759)"><circle class="e" cx="20" cy="20" r="20"/><circle class="f" cx="20" cy="20" r="19.5"/></g></g><rect class="c" width="12.923" height="12.923" rx="2.35" transform="translate(158.275 132.836)"/><rect class="c" width="9.588" height="18.759" rx="0.912" transform="translate(159.943 145.759)"/><path class="c" d="M169.322,132.836h-9.171l1.414-3.181a.961.961,0,0,1,.878-.571h4.588a.96.96,0,0,1,.877.571Z"/><line class="d" y2="2.084" transform="translate(164.737 127)"/><g class="d" transform="translate(162.235 136.796)"><circle class="e" cx="2.501" cy="2.501" r="2.501"/><circle class="f" cx="2.501" cy="2.501" r="3.001"/></g><path class="d" d="M164.737,137.839V139.3h1.251"/><line class="d" y2="12.089" transform="translate(164.737 149.094)"/><line class="d" y2="12.089" transform="translate(167.238 149.094)"/><line class="d" y2="12.089" transform="translate(162.235 149.094)"/></g></svg>