<svg xmlns="http://www.w3.org/2000/svg" width="40" height="40" viewBox="0 0 40 40"><defs><style>.a,.b,.d,.f{fill:none;}.a,.b,.c,.d{stroke:#fff;stroke-linecap:round;stroke-miterlimit:10;}.a{opacity:0;}.b{stroke-width:1.5px;}.c{fill:#fff;}.e{stroke:none;}</style></defs><g transform="translate(-428.812 -520.968)"><g class="a" transform="translate(428.812 520.968)"><circle class="e" cx="20" cy="20" r="20"/><circle class="f" cx="20" cy="20" r="19.5"/></g><path class="b" d="M448.312,554V534a7,7,0,0,1,7-7h0a7,7,0,0,1,7,7v20"/><path class="b" d="M435.562,554.935V543.873a3.937,3.937,0,0,1,4-3.872h0a3.938,3.938,0,0,1,4,3.872v11.062"/><line class="c" y2="2" transform="translate(455.312 525.001)"/><line class="c" y2="2" transform="translate(439.682 538.001)"/><line class="c" x1="1.414" y2="1.414" transform="translate(442.548 539.667)"/><line class="c" x2="1.414" y2="1.414" transform="translate(435.661 539.667)"/><line class="c" x1="2" transform="translate(443.687 544.001)"/><line class="c" x2="1.778" transform="translate(433.812 544.001)"/><line class="c" x1="1.778" transform="translate(443.909 549.501)"/><line class="c" x2="2" transform="translate(433.812 549.501)"/><line class="c" x1="1.414" y2="1.414" transform="translate(459.908 527.491)"/><line class="c" x2="1.414" y2="1.414" transform="translate(449.301 527.491)"/><g transform="translate(-0.644)"><line class="c" x1="2" transform="translate(462.778 533.501)"/><line class="c" x2="2" transform="translate(446.812 533.501)"/><line class="c" x1="2" transform="translate(462.778 539.501)"/><line class="c" x2="2" transform="translate(446.812 539.501)"/><line class="c" x1="2" transform="translate(462.778 545.501)"/><line class="c" x2="2" transform="translate(446.812 545.501)"/></g><circle class="d" cx="1" cy="1" r="1" transform="translate(451.312 540.501)"/><circle class="d" cx="1" cy="1" r="1" transform="translate(457.312 538.501)"/><circle class="d" cx="1" cy="1" r="1" transform="translate(452.312 532.501)"/><circle class="d" cx="1" cy="1" r="1" transform="translate(456.312 548.501)"/><circle class="d" cx="1" cy="1" r="1" transform="translate(439.312 543.501)"/><circle class="d" cx="1" cy="1" r="1" transform="translate(437.312 549.501)"/></g></svg>