<svg xmlns="http://www.w3.org/2000/svg" width="40" height="40" viewBox="0 0 40 40"><defs><style>.a{opacity:0;}.b,.c,.d,.e,.h{fill:none;}.b,.d,.e,.f{stroke:#fff;}.b,.c,.e,.f{stroke-miterlimit:10;}.d{stroke-linecap:round;stroke-linejoin:round;}.e,.f{stroke-width:1.5px;}.f,.i{fill:#fff;}.g,.i{stroke:none;}</style></defs><g transform="translate(-1011.229 -381.915)"><g class="a"><g class="b" transform="translate(1011.229 381.915)"><circle class="g" cx="20" cy="20" r="20"/><circle class="h" cx="20" cy="20" r="19.5"/></g></g><g class="c"><path class="g" d="M1047,399.286a15.771,15.771,0,1,0-23.365,13.824v4.128a3.077,3.077,0,0,0,3.077,3.076h9.034a3.076,3.076,0,0,0,3.076-3.076V413.11A15.766,15.766,0,0,0,1047,399.286Z"/><path class="i" d="M 1031.22900390625 385.0150146484375 C 1027.417114257812 385.0150146484375 1023.833374023438 386.4994506835938 1021.137939453125 389.1949157714844 C 1018.442504882812 391.890380859375 1016.9580078125 395.47412109375 1016.9580078125 399.2860107421875 C 1016.9580078125 404.4896850585938 1019.793701171875 409.283203125 1024.3583984375 411.7958984375 L 1025.135009765625 412.2234191894531 L 1025.135009765625 413.1099853515625 L 1025.135009765625 417.2380065917969 C 1025.135009765625 418.1069946289062 1025.842407226562 418.8139953613281 1026.712036132812 418.8139953613281 L 1035.745971679688 418.8139953613281 C 1036.614990234375 418.8139953613281 1037.322021484375 418.1069946289062 1037.322021484375 417.2380065917969 L 1037.322021484375 413.1099853515625 L 1037.322021484375 412.2234191894531 L 1038.0986328125 411.7958984375 C 1042.6640625 409.2828674316406 1045.5 404.4893493652344 1045.5 399.2860107421875 C 1045.5 395.47412109375 1044.015625 391.890380859375 1041.320068359375 389.1949157714844 C 1038.624633789062 386.4994506835938 1035.040893554688 385.0150146484375 1031.22900390625 385.0150146484375 M 1031.22900390625 383.5150146484375 C 1039.93896484375 383.5150146484375 1047 390.5759887695312 1047 399.2860107421875 C 1047 405.2430114746094 1043.696044921875 410.427001953125 1038.822021484375 413.1099853515625 L 1038.822021484375 417.2380065917969 C 1038.822021484375 418.93701171875 1037.444946289062 420.3139953613281 1035.745971679688 420.3139953613281 L 1026.712036132812 420.3139953613281 C 1025.012939453125 420.3139953613281 1023.635009765625 418.93701171875 1023.635009765625 417.2380065917969 L 1023.635009765625 413.1099853515625 C 1018.760986328125 410.427001953125 1015.4580078125 405.2430114746094 1015.4580078125 399.2860107421875 C 1015.4580078125 390.5759887695312 1022.51904296875 383.5150146484375 1031.22900390625 383.5150146484375 Z"/></g><path class="d" d="M1030.444,408.832l.785-.785.785.785"/><g class="e" transform="translate(1023.635 397.534)"><circle class="g" cx="2.921" cy="2.921" r="2.921"/><circle class="h" cx="2.921" cy="2.921" r="2.171"/></g><g class="e" transform="translate(1032.981 397.534)"><circle class="g" cx="2.921" cy="2.921" r="2.921"/><circle class="h" cx="2.921" cy="2.921" r="2.171"/></g><line class="f" y2="4.101" transform="translate(1033.565 415.045)"/><line class="f" y2="4.101" transform="translate(1028.892 415.045)"/></g></svg>