<svg xmlns="http://www.w3.org/2000/svg" width="40" height="40" viewBox="0 0 40 40"><defs><style>.a,.b,.c,.d,.f{fill:none;}.a,.b,.c,.d{stroke:#fff;}.a{stroke-miterlimit:10;opacity:0;}.b,.c,.d{stroke-linecap:round;}.b,.c{stroke-linejoin:round;}.b{stroke-width:1.5px;}.e{stroke:none;}</style></defs><g transform="translate(-255 -431)"><g class="a" transform="translate(255 431)"><circle class="e" cx="20" cy="20" r="20"/><circle class="f" cx="20" cy="20" r="19.5"/></g><g transform="translate(1611.337 450.189)"><rect class="b" width="26.343" height="7.309" transform="translate(-1349.045 6.311)"/><rect class="b" width="17.054" height="8.527" transform="translate(-1344.837 -2.353)"/><line class="b" x2="19" transform="translate(-1345.837 -2.353)"/><line class="c" x2="19" transform="translate(-1345.837 -4.353)"/><path class="b" d="M8.591,0h0a8.591,8.591,0,0,1,8.591,8.591v.718a0,0,0,0,1,0,0H0a0,0,0,0,1,0,0V8.591A8.591,8.591,0,0,1,8.591,0Z" transform="translate(-1344.837 -11.662)"/><g transform="translate(-1345.837 9.828)"><line class="b" y2="3.654"/><line class="b" y2="3.654" transform="translate(3)"/><line class="b" y2="3.654" transform="translate(7.6)"/><line class="b" y2="3.654" transform="translate(11.4)"/><line class="b" y2="3.654" transform="translate(16)"/><line class="b" y2="3.654" transform="translate(19)"/></g><line class="b" y2="2.741" transform="translate(-1341.837 0.68)"/><line class="b" y2="2.741" transform="translate(-1339.108 0.68)"/><line class="b" y2="2.741" transform="translate(-1336.379 0.68)"/><line class="b" y2="2.741" transform="translate(-1333.651 0.68)"/><line class="b" y2="2.741" transform="translate(-1330.922 0.68)"/><path class="d" d="M-1336.246-17.827v3.638" transform="translate(-0.091)"/><rect class="b" width="3.181" height="2.309" transform="translate(-1337.837 -14.189)"/></g></g></svg>