<svg xmlns="http://www.w3.org/2000/svg" width="40" height="40" viewBox="0 0 40 40"><defs><style>.a{opacity:0;}.b,.c,.e{fill:none;}.b,.c{stroke:#fff;stroke-miterlimit:10;}.c{stroke-width:1.5px;}.d{stroke:none;}</style></defs><g transform="translate(-1013.229 -405.915)"><g class="a"><g class="b" transform="translate(1013.229 405.915)"><circle class="d" cx="20" cy="20" r="20"/><circle class="e" cx="20" cy="20" r="19.5"/></g></g><path class="c" d="M1037.245,435.1h-8.027a1.281,1.281,0,0,1-1.268-1.1l-1.584-11.093a13.09,13.09,0,0,1,2.881-10.207l4.087-4.929,4,4.96a13.092,13.092,0,0,1,2.774,10.075l-1.6,11.194A1.28,1.28,0,0,1,1037.245,435.1Z"/><path class="b" d="M1046.469,433.387h-7.686l1.708-8.967,6.826,6.023a1.282,1.282,0,0,1,.433.96v.7A1.281,1.281,0,0,1,1046.469,433.387Z"/><path class="b" d="M1019.979,433.387l7.686.058-1.641-8.98-6.87,5.972a1.279,1.279,0,0,0-.441.957l-.005.7A1.281,1.281,0,0,0,1019.979,433.387Z"/><circle class="b" cx="2.135" cy="2.135" r="2.135" transform="translate(1031.31 415.239)"/><path class="b" d="M1031.332,437.236a2.627,2.627,0,0,0-.523,3.014l1.6,3.321a.846.846,0,0,0,1.537,0l1.6-3.321a2.618,2.618,0,0,0-.523-3.014A2.562,2.562,0,0,0,1031.332,437.236Z"/></g></svg>