<svg xmlns="http://www.w3.org/2000/svg" width="40" height="40" viewBox="0 0 40 40"><defs><style>.a{opacity:0;}.b,.c,.d,.f{fill:none;}.b,.c,.d{stroke:#fff;}.b{stroke-miterlimit:10;}.c,.d{stroke-linecap:round;stroke-linejoin:round;}.c{stroke-width:1.5px;}.e{stroke:none;}</style></defs><g transform="translate(-575.737 -31.759)"><g class="a"><g class="b" transform="translate(575.737 31.759)"><circle class="e" cx="20" cy="20" r="20"/><circle class="f" cx="20" cy="20" r="19.5"/></g></g><rect class="c" width="25.981" height="6.813" transform="translate(583.473 58.572)"/><rect class="c" width="25.981" height="6.813" transform="translate(583.473 51.759)"/><path class="c" d="M604.3,51.759H583.473V44.946h15.319a1.011,1.011,0,0,1,.965.712l.018.058a1.011,1.011,0,0,0,1.064.707h0a1.007,1.007,0,0,1,1,.543Z"/><path class="c" d="M594.179,44.946H583.473V38.133h7.2Z"/><path class="d" d="M1.629,0h0A1.629,1.629,0,0,1,3.258,1.629V3.893a0,0,0,0,1,0,0H0a0,0,0,0,1,0,0V1.629A1.629,1.629,0,0,1,1.629,0Z" transform="translate(586.004 41.053)"/><path class="d" d="M1.629,0h0A1.629,1.629,0,0,1,3.258,1.629V3.893a0,0,0,0,1,0,0H0a0,0,0,0,1,0,0V1.629A1.629,1.629,0,0,1,1.629,0Z" transform="translate(586.004 47.866)"/><path class="d" d="M1.629,0h0A1.629,1.629,0,0,1,3.258,1.629V3.893a0,0,0,0,1,0,0H0a0,0,0,0,1,0,0V1.629A1.629,1.629,0,0,1,1.629,0Z" transform="translate(591.869 47.866)"/><path class="d" d="M1.629,0h0A1.629,1.629,0,0,1,3.258,1.629V3.893a0,0,0,0,1,0,0H0a0,0,0,0,1,0,0V1.629A1.629,1.629,0,0,1,1.629,0Z" transform="translate(597.734 47.866)"/><path class="d" d="M1.629,0h0A1.629,1.629,0,0,1,3.258,1.629V3.893a0,0,0,0,1,0,0H0a0,0,0,0,1,0,0V1.629A1.629,1.629,0,0,1,1.629,0Z" transform="translate(586.004 54.679)"/><path class="d" d="M1.629,0h0A1.629,1.629,0,0,1,3.258,1.629V3.893a0,0,0,0,1,0,0H0a0,0,0,0,1,0,0V1.629A1.629,1.629,0,0,1,1.629,0Z" transform="translate(591.869 54.679)"/><path class="d" d="M1.629,0h0A1.629,1.629,0,0,1,3.258,1.629V3.893a0,0,0,0,1,0,0H0a0,0,0,0,1,0,0V1.629A1.629,1.629,0,0,1,1.629,0Z" transform="translate(597.734 54.679)"/><path class="d" d="M1.629,0h0A1.629,1.629,0,0,1,3.258,1.629V3.893a0,0,0,0,1,0,0H0a0,0,0,0,1,0,0V1.629A1.629,1.629,0,0,1,1.629,0Z" transform="translate(603.574 54.679)"/><path class="d" d="M1.629,0h0A1.629,1.629,0,0,1,3.258,1.629V3.893a0,0,0,0,1,0,0H0a0,0,0,0,1,0,0V1.629A1.629,1.629,0,0,1,1.629,0Z" transform="translate(586.004 61.492)"/><path class="d" d="M1.629,0h0A1.629,1.629,0,0,1,3.258,1.629V3.893a0,0,0,0,1,0,0H0a0,0,0,0,1,0,0V1.629A1.629,1.629,0,0,1,1.629,0Z" transform="translate(591.869 61.492)"/><path class="d" d="M1.629,0h0A1.629,1.629,0,0,1,3.258,1.629V3.893a0,0,0,0,1,0,0H0a0,0,0,0,1,0,0V1.629A1.629,1.629,0,0,1,1.629,0Z" transform="translate(597.734 61.492)"/><path class="d" d="M1.629,0h0A1.629,1.629,0,0,1,3.258,1.629V3.893a0,0,0,0,1,0,0H0a0,0,0,0,1,0,0V1.629A1.629,1.629,0,0,1,1.629,0Z" transform="translate(603.574 61.492)"/></g></svg>