<svg xmlns="http://www.w3.org/2000/svg" width="130.573" height="131.063" viewBox="0 0 130.573 131.063"><defs><style>.a{fill:#333;}</style></defs><g transform="translate(-5 -4.9)"><path class="a" d="M119.7,123.2a3.272,3.272,0,1,1-3.272-3.272A3.282,3.282,0,0,1,119.7,123.2Zm-34.525-1.8a3.272,3.272,0,1,0,3.272,3.272A3.282,3.282,0,0,0,85.176,121.4ZM44.924,85.567A3.272,3.272,0,1,0,48.2,88.84,3.282,3.282,0,0,0,44.924,85.567ZM132.3,94.73A3.272,3.272,0,1,0,135.573,98,3.282,3.282,0,0,0,132.3,94.73ZM76.668,55.46a3.272,3.272,0,1,0,3.272-3.272A3.282,3.282,0,0,0,76.668,55.46ZM107.92,31.571a3.272,3.272,0,1,0-3.272-3.272A3.282,3.282,0,0,0,107.92,31.571Zm15.053,29.78a3.272,3.272,0,1,0,3.272,3.272A3.393,3.393,0,0,0,122.973,61.351ZM48.2,50.879a3.272,3.272,0,1,0-3.272-3.272A3.282,3.282,0,0,0,48.2,50.879Zm6.381-39.434a3.272,3.272,0,1,0-3.272-3.272A3.282,3.282,0,0,0,54.578,11.445ZM30.689,70.35a3.272,3.272,0,1,0,3.272-3.272A3.282,3.282,0,0,0,30.689,70.35Zm0-40.906a3.272,3.272,0,1,0-3.272-3.272A3.282,3.282,0,0,0,30.689,29.444ZM8.272,97.348a3.272,3.272,0,1,0,3.272,3.272A3.516,3.516,0,0,0,8.272,97.348ZM66.2,26.008a5.4,5.4,0,0,1,2.618-5.563,5.462,5.462,0,0,1,6.218.654A5.772,5.772,0,0,1,76.5,22.9c.164-2.291-.818-4.909-2.782-7.69a1.522,1.522,0,0,1,2.454-1.8c5.236,7.363,3.109,12.435,1.964,14.235a.16.16,0,0,1-.164.164c.327,2.618,0,6.218-1.473,11.126a1.572,1.572,0,0,1-1.473,1.145h-.491a1.524,1.524,0,0,1-.982-1.964,33.217,33.217,0,0,0,1.473-7.527,7.191,7.191,0,0,1-4.581.327A5.423,5.423,0,0,1,66.2,26.008Zm3.272-.327a2.33,2.33,0,0,0,1.8,2.291,5.078,5.078,0,0,0,3.763-1.145,4.97,4.97,0,0,0-1.8-3.109,2.288,2.288,0,0,0-2.782-.327C69.632,23.717,69.3,24.535,69.468,25.68ZM125.1,80a1.624,1.624,0,0,1-2.127.818c-13.581-5.563-26.834-1.8-34.525,1.636a53.809,53.809,0,0,1,3.763,5.4,12.874,12.874,0,0,1,9.981.491,14.131,14.131,0,0,1,2.618,1.636,35.436,35.436,0,0,1,13.744-1.964,1.636,1.636,0,0,1,0,3.272h-.491A39.351,39.351,0,0,0,107.1,92.6c1.636,2.127,2.454,4.581,1.963,6.545a3.768,3.768,0,0,1-3.927,2.945h0a6.322,6.322,0,0,1-5.4-2.945,5.022,5.022,0,0,1,0-5.236,7.342,7.342,0,0,1,1.8-2.127l-.982-.491a9.548,9.548,0,0,0-7.036-.654c3.6,6.545,4.909,12.108,2.127,15.053a9.076,9.076,0,0,1-1.309.982l-.164.164c-.491.164-53.505,22.58-67.086,28.634a6.566,6.566,0,0,1-2.454.491,5.517,5.517,0,0,1-5.563-5.563,5.038,5.038,0,0,1,.491-2.127l25.2-70.031a.16.16,0,0,1,.164-.164,5.658,5.658,0,0,1,1.145-1.963c2.945-3.109,9.163-1.309,16.2,2.782-.164-6.218-1.145-12.763-4.254-17.671A16.258,16.258,0,0,0,47.379,33.7a1.509,1.509,0,0,1,.654-2.945A18.884,18.884,0,0,1,60.8,39.588c3.763,6.054,4.909,14.235,4.745,21.435A98.108,98.108,0,0,1,79.286,72.477h0c2.291,2.291,4.581,4.909,6.709,7.363,8.018-3.763,22.58-8.345,37.8-1.964C125.1,78.368,125.428,79.186,125.1,80ZM102.848,97.675a2.972,2.972,0,0,0,2.618,1.309c.654,0,.818-.164.818-.491.164-.818-.491-2.782-1.963-4.418a3.888,3.888,0,0,0-1.473,1.473A3.078,3.078,0,0,0,102.848,97.675Zm-15.381,8.836a32.933,32.933,0,0,1-5.072-2.291c-6.054-3.109-12.763-8.508-19.308-14.89C56.705,82.949,51.306,76.077,48.2,70.023c-.818-1.636-1.473-3.109-2.127-4.581L23,129.582v.164c0,.164-.164.491-.164.654a2.237,2.237,0,0,0,2.291,2.291,1.475,1.475,0,0,0,.818-.164h0l.327-.164h.164C37.561,127.619,73.068,112.565,87.467,106.511Zm-1.8-22.58C83.376,85.24,81.9,86.222,81.9,86.222a2.326,2.326,0,0,1-.982.327,1.488,1.488,0,0,1-1.309-.655,1.551,1.551,0,0,1,.327-2.127,32.109,32.109,0,0,1,3.6-2.127A73.538,73.538,0,0,0,77.486,75.1a97.834,97.834,0,0,0-11.617-9.981A85.755,85.755,0,0,1,63.9,78.858,1.572,1.572,0,0,1,62.432,80h-.327A1.6,1.6,0,0,1,60.96,78.04a91.192,91.192,0,0,0,1.964-15.053c-5.236-3.272-9.327-4.909-11.945-4.909a2.776,2.776,0,0,0-2.127.655c-.982.982-.982,4.254,2.127,10.145a85.046,85.046,0,0,0,14.4,18.49,85.046,85.046,0,0,0,18.49,14.4c5.89,3.109,9.163,3.109,10.145,2.127,1.473-1.473.491-5.727-2.782-11.454a23.251,23.251,0,0,0-5.89,5.072,1.624,1.624,0,0,1-2.454-2.127,24.689,24.689,0,0,1,6.545-5.727A38.2,38.2,0,0,0,85.667,83.931ZM80.922,65.6a1.582,1.582,0,0,0,2.291,0C99.9,48.424,100.23,29.28,100.23,28.462a1.64,1.64,0,0,0-1.636-1.636h0a1.64,1.64,0,0,0-1.636,1.636c0,.164-.327,18.817-16.035,35.016A1.4,1.4,0,0,0,80.922,65.6Zm52.851-24.053c-4.582,12.108-10.636,13.417-13.908,13.09a1.475,1.475,0,0,1-.818-.164c-2.454,1.963-6.054,3.927-11.617,5.89-.164,0-.327.164-.491.164a1.572,1.572,0,0,1-1.473-1.145,1.466,1.466,0,0,1,.982-1.963,34.508,34.508,0,0,0,9.163-4.254,8.63,8.63,0,0,1-3.109-4.745,4.751,4.751,0,0,1,2.782-5.4,6.019,6.019,0,0,1,6.218.164,5.087,5.087,0,0,1,1.963,4.909,9.6,9.6,0,0,1-1.309,3.272c3.272-.982,6.381-4.745,8.672-10.963a1.757,1.757,0,0,1,1.963-.982A1.573,1.573,0,0,1,133.773,41.552ZM119.7,45.643a1.763,1.763,0,0,0-1.309-.327,3.157,3.157,0,0,0-1.636.491,1.757,1.757,0,0,0-.982,1.964,4.4,4.4,0,0,0,2.618,3.109,6.275,6.275,0,0,0,1.963-3.436A1.634,1.634,0,0,0,119.7,45.643Z"/></g></svg>