<svg xmlns="http://www.w3.org/2000/svg" width="40" height="40" viewBox="0 0 40 40"><defs><style>.a{opacity:0;}.b,.c,.d,.f{fill:none;}.b,.c,.d{stroke:#fff;}.b{stroke-miterlimit:10;}.c,.d{stroke-linecap:round;stroke-linejoin:round;}.c{stroke-width:1.5px;}.e{stroke:none;}</style></defs><g transform="translate(-384.737 -31.759)"><g class="a"><g class="b" transform="translate(384.737 31.759)"><circle class="e" cx="20" cy="20" r="20"/><circle class="f" cx="20" cy="20" r="19.5"/></g></g><path class="c" d="M0,0H12.612a0,0,0,0,1,0,0V22.188A1.709,1.709,0,0,1,10.9,23.9H1.709A1.709,1.709,0,0,1,0,22.188V0A0,0,0,0,1,0,0Z" transform="translate(398.43 43.904)"/><path class="c" d="M415,50.551l-3.956,1.319V43.9h5.974v3.847A2.952,2.952,0,0,1,415,50.551Z"/><path class="c" d="M418.9,46.817l-1.884.627V43.9H421A3.071,3.071,0,0,1,418.9,46.817Z"/><path class="c" d="M394.474,50.551l3.956,1.319V43.9h-5.974v3.847A2.952,2.952,0,0,0,394.474,50.551Z"/><path class="c" d="M390.572,46.817l1.884.627V43.9h-3.983A3.071,3.071,0,0,0,390.572,46.817Z"/><path class="d" d="M411.043,54.639a33.4,33.4,0,0,1-12.613,7.75v-6.8a34.124,34.124,0,0,0,12.613-11.244Z"/><line class="c" y2="6.797" transform="translate(402.712 61)"/><line class="c" y2="9.801" transform="translate(407.844 58)"/><circle class="d" cx="2.655" cy="2.655" r="2.655" transform="translate(402.192 35.717)"/><line class="d" y1="4.204" transform="translate(402.192 37.93)"/><line class="d" y1="4.204" transform="translate(407.503 37.93)"/><path class="d" d="M404.847,36.308a2.287,2.287,0,0,0-.078-.584,2.61,2.61,0,0,0-2.534,2.608c0,.08.005.159.012.237a2.169,2.169,0,0,0,.314.025A2.286,2.286,0,0,0,404.847,36.308Z"/><path class="d" d="M404.925,35.724a2.279,2.279,0,0,0,2.208,2.87,2.183,2.183,0,0,0,.315-.025c.007-.078.012-.157.012-.237A2.61,2.61,0,0,0,404.925,35.724Z"/></g></svg>