<svg xmlns="http://www.w3.org/2000/svg" width="40" height="40" viewBox="0 0 40 40"><defs><style>.a{opacity:0;}.b,.c,.d,.f{fill:none;}.b,.c,.d{stroke:#fff;}.b{stroke-miterlimit:10;}.c,.d{stroke-linecap:round;stroke-linejoin:round;}.c{stroke-width:1.5px;}.e{stroke:none;}</style></defs><g transform="translate(-554.737 -117.759)"><g class="a"><g class="b" transform="translate(554.737 117.759)"><circle class="e" cx="20" cy="20" r="20"/><circle class="f" cx="20" cy="20" r="19.5"/></g></g><path class="c" d="M584.6,144.692v1.493a1.438,1.438,0,0,1-1.438,1.439h-3.7a1.439,1.439,0,0,1-1.439-1.439v-1.96a1.533,1.533,0,0,0-1.534-1.533h-3.509a1.533,1.533,0,0,0-1.534,1.533v1.96a1.438,1.438,0,0,1-1.438,1.439h-3.7a1.439,1.439,0,0,1-1.439-1.439v-10.07"/><path class="c" d="M557.473,137.759v.206a2.26,2.26,0,0,0,2.261,2.26h0a2.261,2.261,0,0,0,2.261-2.26v-6.042a4.028,4.028,0,0,1,4.028-4.029h17.246a6.265,6.265,0,0,1,6.265,6.265v4.616a2.272,2.272,0,0,1-2.272,2.272h0a4.3,4.3,0,0,1-4.305-4.3v-3.916"/><path class="d" d="M589.534,138.225v4.467A2.466,2.466,0,0,0,592,145.158h0"/><circle class="d" cx="0.822" cy="0.822" r="0.822" transform="translate(585.423 133.649)"/></g></svg>