<svg xmlns="http://www.w3.org/2000/svg" width="40" height="40" viewBox="0 0 40 40"><defs><style>.a{opacity:0;}.b,.c,.d,.f{fill:none;}.b,.c,.d{stroke:#fff;stroke-miterlimit:10;}.c,.d{stroke-linecap:round;}.c{stroke-width:1.5px;}.e{stroke:none;}</style></defs><g transform="translate(-662.667 -620.333)"><g class="a"><g class="b" transform="translate(662.667 620.333)"><circle class="e" cx="20" cy="20" r="20"/><circle class="f" cx="20" cy="20" r="19.5"/></g></g><path class="c" d="M676.571,647.59a4.057,4.057,0,0,1-4.064-4.05V628.35c.016-5.6,4.555-6.143,10.16-6.16h0c5.6.017,10.143.556,10.16,6.16v15.176c0,2.25-.814,4.064-3.064,4.064Z"/><path class="c" d="M685.57,648.413v7.16a2.911,2.911,0,0,1-2.9,2.9h0a2.911,2.911,0,0,1-2.9-2.9v-7.16"/><path class="d" d="M676,638v-8.852c.015-2.921,2.379-3.285,5.3-3.3"/></g></svg>