<svg xmlns="http://www.w3.org/2000/svg" width="40" height="40" viewBox="0 0 40 40"><defs><style>.a{opacity:0;}.b,.c,.d,.e,.f,.h{fill:none;}.b,.c,.d,.e,.f{stroke:#fff;}.b{stroke-miterlimit:10;}.c,.d,.e,.f{stroke-linecap:round;stroke-linejoin:round;}.c,.e{stroke-width:1.5px;}.c,.f{fill-rule:evenodd;}.g{stroke:none;}</style></defs><g transform="translate(-303.667 -515.333)"><g class="a"><g class="b" transform="translate(303.667 515.333)"><circle class="g" cx="20" cy="20" r="20"/><circle class="h" cx="20" cy="20" r="19.5"/></g></g><path class="c" d="M312.528,521.833c6.632,0,14.136.128,18.906,1.271q.624.148,1.183.325c2.127,5.763,1.132,12.322-6.181,16.037-8.039,4.083,3.811,9.143-2.181,13.367.15-4.712-6.241-6.86-8.37-10.98C312.088,534.51,325.233,535.873,312.528,521.833Z"/><path class="d" d="M314,528a20.736,20.736,0,0,1,10.7-.521"/><path class="d" d="M326.963,534.711c2.26.452,3.681.933,5.037,2.289"/><path class="d" d="M322.568,541.067a10.132,10.132,0,0,1,3.039.424"/><path class="d" d="M317.582,538.988a2.337,2.337,0,0,1,1.386.262"/><path class="d" d="M322.253,531.086a4.279,4.279,0,0,1,.635,1.932"/><path class="e" d="M317.99,521.9c4.455.212,20.626.028,17.01,4.1"/><path class="f" d="M332.571,545.476a20.967,20.967,0,0,0,1.463-5.608c.106-.937-.511-1.289-1.185-.8a20.689,20.689,0,0,0-4.214,4.138,2.273,2.273,0,0,0,.832,3.1A2.248,2.248,0,0,0,332.571,545.476Z"/><line class="d" x1="1.808" y2="3.164" transform="translate(328.386 544.956)"/><rect class="d" width="3.616" height="3.164" rx="1.08" transform="translate(326.56 528.641) rotate(-32.447)"/></g></svg>