<svg xmlns="http://www.w3.org/2000/svg" xmlns:xlink="http://www.w3.org/1999/xlink" width="156" height="143" viewBox="0 0 156 143"><defs><style>.a{fill:#85bf4a;}.b{opacity:0;}.c,.d,.e{fill:none;stroke:#fff;}.d,.e{stroke-linecap:round;stroke-width:2px;}.e{stroke-linejoin:round;stroke-miterlimit:10;}.f{filter:url(#a);}</style><filter id="a" x="0" y="0" width="156" height="143" filterUnits="userSpaceOnUse"><feOffset input="SourceAlpha"/><feGaussianBlur stdDeviation="3" result="b"/><feFlood flood-opacity="0.071"/><feComposite operator="in" in2="b"/><feComposite in="SourceGraphic"/></filter></defs><g transform="translate(-1052 -1448)"><g class="f" transform="matrix(1, 0, 0, 1, 1052, 1448)"><rect class="a" width="138" height="125" rx="10" transform="translate(9 9)"/></g><g transform="translate(1091 1480.306)"><g transform="translate(0 0)"><g class="b"><rect class="c" width="78" height="79" transform="translate(0 -0.306)"/><circle class="c" cx="28" cy="28" r="28" transform="translate(12 10.694)"/></g><g transform="translate(25.034 18.481)"><path class="d" d="M0,4v8.641" transform="translate(6.462 28.341)"/><line class="e" x2="12.61" transform="translate(0 40.981)"/><path class="e" d="M27.638,25.589A21.19,21.19,0,0,1,6.359,4.31,23.515,23.515,0,0,1,6.674,1,17.187,17.187,0,1,0,30.948,25.274,23.515,23.515,0,0,1,27.638,25.589Z" transform="translate(-1 -1)"/><g transform="translate(14.186 3.342)"><line class="e" y1="4.886" x2="5.044" transform="translate(0 7.534)"/><circle class="e" cx="3.152" cy="3.152" r="3.152" transform="translate(6.115)"/></g></g></g></g></g></svg>