<svg xmlns="http://www.w3.org/2000/svg" width="79" height="80" viewBox="0 0 79 80"><defs><style>.a{opacity:0;}.b,.c{fill:none;stroke:#fff;}.c{stroke-linecap:round;stroke-linejoin:round;stroke-miterlimit:10;stroke-width:2px;}</style></defs><g transform="translate(0.588 0.806)"><g transform="translate(0 0)"><g class="a"><rect class="b" width="78" height="79" transform="translate(-0.088 -0.306)"/><circle class="b" cx="28" cy="28" r="28" transform="translate(11.912 10.694)"/></g><g transform="translate(23.397 18.177)"><path class="c" d="M3.838,6.437C6.822,1.554,16.045,3.724,22.827,7.793S37.611,16.2,30.965,20c-9.494,5.425-14.92,1.356-20.345-1.356C3.567,15.117-.231,13.218,3.838,6.437Z" transform="translate(-0.62 -0.046)"/><path class="c" d="M20.952,8.217a21.378,21.378,0,0,1-5.245,2.58" transform="translate(4.453 1.588)"/><path class="c" d="M12.726,4.5C9.607,9.925,15.919,19,16.462,22.12" transform="translate(2.834 0.264)"/><path class="c" d="M10.153,18.087,1.4,33.082a2.376,2.376,0,0,0,.678,3.255h0A2.494,2.494,0,0,0,5.6,35.524l2.176-3.568" transform="translate(-1.027 5.183)"/><path class="c" d="M20.928,5.769l.579-1.1a2.413,2.413,0,0,0-.814-3.255h0a2.494,2.494,0,0,0-3.526.814l-.73,1.2" transform="translate(4.497 -0.988)"/><path class="c" d="M8.271,25.968l3.873-6.35" transform="translate(1.771 5.774)"/><path class="c" d="M10.048,12.6,7.4,13.959" transform="translate(1.244 3.283)"/></g></g></g></svg>