<svg xmlns="http://www.w3.org/2000/svg" width="40" height="40" viewBox="0 0 40 40"><defs><style>.a{opacity:0;}.b,.c,.d,.f{fill:none;}.b,.c,.d{stroke:#fff;}.b{stroke-miterlimit:10;}.c,.d{stroke-linecap:round;stroke-linejoin:round;}.c{stroke-width:1.5px;}.e{stroke:none;}</style></defs><g transform="translate(-179.258 -431.847)"><g class="a"><g class="b" transform="translate(179.258 431.847)"><circle class="e" cx="20" cy="20" r="20"/><circle class="f" cx="20" cy="20" r="19.5"/></g></g><g transform="translate(0 4.558)"><path class="c" d="M204.758,453.788h11l1,5h-12"/><path class="c" d="M204.758,448.788h8l1,5h-9"/><path class="c" d="M203.758,443.788h6l1,5h-6"/><path class="c" d="M193.758,453.788h-11l-1,5h12"/><path class="c" d="M193.758,448.788h-8l-1,5h9"/><path class="c" d="M194.758,443.788h-6l-1,5h6"/><line class="c" x2="15" transform="translate(190.758 458.788)"/><line class="c" x2="14" transform="translate(193.758 443.788)"/><rect class="c" width="13" height="7.724" transform="translate(192.758 436.064)"/><path class="d" d="M2,0H3A2,2,0,0,1,5,2V3A0,0,0,0,1,5,3H0A0,0,0,0,1,0,3V2A2,2,0,0,1,2,0Z" transform="translate(196.758 440.788)"/><line class="d" x2="13" transform="translate(192.758 438.271)"/><line class="d" x1="1" y1="14" transform="translate(203.758 443.788)"/><line class="d" y1="14" x2="1" transform="translate(193.758 443.788)"/></g></g></svg>