<svg xmlns="http://www.w3.org/2000/svg" width="40" height="40" viewBox="0 0 40 40"><defs><style>.a{opacity:0;}.b,.c,.e{fill:none;}.b,.c{stroke:#fff;}.b{stroke-miterlimit:10;}.c{stroke-linecap:round;stroke-linejoin:round;stroke-width:1.5px;}.d{stroke:none;}</style></defs><g transform="translate(-337.667 -396.581)"><g class="a"><g class="b" transform="translate(337.667 396.581)"><circle class="d" cx="20" cy="20" r="20"/><circle class="e" cx="20" cy="20" r="19.5"/></g></g><path class="c" d="M363.148,426v7.78h-2.569V426"/><path class="c" d="M360.071,419.383l2.447-.013a2.918,2.918,0,0,1,2.754,1.912l1.991,8.918"/><path class="c" d="M361.071,419.383l-2.448.012a2.916,2.916,0,0,1-2.753-1.912l-1.992-12.1"/><path class="c" d="M354.071,399.383v3l-5.34.89a.789.789,0,0,0-.66.779v.661a.791.791,0,0,0,.66.78l3.34-.11,2.515,28.4h2.568V426"/><line class="c" y1="3" transform="translate(352.071 399.383)"/></g></svg>