<svg xmlns="http://www.w3.org/2000/svg" width="40" height="40" viewBox="0 0 40 40"><defs><style>.a{opacity:0;}.b,.c,.d,.f{fill:none;}.b,.c,.d{stroke:#fff;stroke-linecap:round;}.b,.c{stroke-linejoin:round;stroke-miterlimit:10;}.c{stroke-width:1.5px;}.e{stroke:none;}</style></defs><g transform="translate(-524.258 -678.847)"><g class="a"><g class="b" transform="translate(524.258 678.847)"><circle class="e" cx="20" cy="20" r="20"/><circle class="f" cx="20" cy="20" r="19.5"/></g></g><path class="c" d="M556.543,694.226a18.521,18.521,0,0,0-1.75-4.264q-.246-.439-.513-.868-.5.094-.985.213a18.693,18.693,0,0,0-3.926,1.408"/><path class="c" d="M539.489,690.249a19.013,19.013,0,0,0-3.327-1.28q-.484-.137-.976-.251-.283.417-.546.847a18.176,18.176,0,0,0-2.106,4.851"/><path class="b" d="M550.752,695.858a13.766,13.766,0,0,0-2.24-5.485,17.635,17.635,0,0,0-3.955-4.1q-.393-.3-.8-.578-.408.28-.8.578a17.849,17.849,0,0,0-3.65,3.667,13.854,13.854,0,0,0-2.547,5.926" transform="translate(0.511 0.742)"/><path class="c" d="M544.279,711.955h-.006v.023q.447.023.9.023a17.692,17.692,0,0,0,17.692-17.692q0-.453-.022-.9-.447-.023-.9-.023a17.692,17.692,0,0,0-17.686,17.209c.005.161.007.322.007.483s0,.321-.007.48c0,.13.009.259.015.388l0,0,.017-.012"/><path class="c" d="M544.245,711.9c.006-.113.01-.227.013-.342,0-.159-.007-.319-.007-.48s0-.322.007-.483a17.607,17.607,0,0,0-2.71-8.941,17.819,17.819,0,0,0-4.792-5.045,17.638,17.638,0,0,0-10.183-3.223q-.453,0-.9.023-.022.447-.023.9A17.692,17.692,0,0,0,543.342,712q.453,0,.9-.023l0-.031"/><path class="d" d="M1610.849,419.215h-25.223" transform="translate(-1053.555 292.847)"/></g></svg>