<svg xmlns="http://www.w3.org/2000/svg" width="40" height="40" viewBox="0 0 40 40"><defs><style>.a,.b,.c,.d,.f{fill:none;}.a,.b,.c,.d{stroke:#fff;stroke-linecap:round;}.a,.b,.c{stroke-linejoin:round;}.a,.b{stroke-width:1.5px;}.a{opacity:0;}.e{stroke:none;}</style></defs><g transform="translate(-1063.634 -212.685)"><g class="a" transform="translate(1063.634 212.685)"><circle class="e" cx="20" cy="20" r="20"/><circle class="f" cx="20" cy="20" r="19.25"/></g><path class="b" d="M1081.6,234.719A17.316,17.316,0,0,1,1077.783,216a17.311,17.311,0,1,0,22.536,22.536A17.318,17.318,0,0,1,1081.6,234.719Z"/><circle class="c" cx="1.505" cy="1.505" r="1.505" transform="translate(1069.997 228.257)"/><circle class="c" cx="0.753" cy="0.753" r="0.753" transform="translate(1072.255 225.246)"/><path class="c" d="M1075.469,233.179a.956.956,0,0,1,0-1.912" transform="translate(27.809 568.405) rotate(-30)"/><g transform="translate(1008.634 -105.315)"><path class="d" d="M967.335,326.318v4.271" transform="translate(-890)"/><path class="d" d="M967.335,326.318v4.271" transform="translate(405.788 -638.882) rotate(90)"/></g><g transform="translate(1010.769 -98.18)"><path class="d" d="M967.335,326.318v4" transform="translate(-890.135)"/><path class="d" d="M0,0V4" transform="translate(79.199 328.318) rotate(90)"/></g></g></svg>