<svg xmlns="http://www.w3.org/2000/svg" width="40" height="40" viewBox="0 0 40 40"><defs><style>.a{opacity:0;}.b,.c,.d,.f{fill:none;}.b,.c,.d{stroke:#fff;}.b{stroke-miterlimit:10;}.c,.d{stroke-linecap:round;stroke-linejoin:round;fill-rule:evenodd;}.c{stroke-width:1.5px;}.e{stroke:none;}</style></defs><g transform="translate(-292 -96)"><g class="a" transform="translate(-652.229 67.085)"><g class="b" transform="translate(944.229 28.915)"><circle class="e" cx="20" cy="20" r="20"/><circle class="f" cx="20" cy="20" r="19.5"/></g></g><g transform="translate(812.58 -493.726)"><g transform="translate(-509.389 594)"><path class="c" d="M-492.748,618.351h-10.719a3.352,3.352,0,0,1-3.316-3.843l1.953-19.269A1.452,1.452,0,0,1-503.394,594h10.572a1.452,1.452,0,0,1,1.436,1.239l1.953,19.269A3.352,3.352,0,0,1-492.748,618.351Z" transform="translate(506.82 -594)"/><path class="d" d="M-496.5,640.176c0-.373,1.817-.676,4.058-.676s4.059.3,4.059.676" transform="translate(501.154 -618.982)"/><path class="d" d="M-503.1,602.975c0-.518,3.149-.937,7.033-.937s7.033.419,7.033.937" transform="translate(504.776 -598.413)"/><path class="d" d="M-488.432,607.5h-1.293a.878.878,0,0,0-.875.958l.728,8.005a.879.879,0,0,1-.875.958h-3.939a.879.879,0,0,1-.875-.958l.728-8.005a.879.879,0,0,0-.875-.958H-497" transform="translate(501.428 -601.412)"/></g><path class="c" d="M-511.5,655.277v-1.908a4.79,4.79,0,0,1,4.707-4.869h12.231a4.79,4.79,0,0,1,4.707,4.869v1.908" transform="translate(0 -30.149)"/></g></g></svg>