<svg xmlns="http://www.w3.org/2000/svg" width="41.5" height="41.5" viewBox="0 0 41.5 41.5"><defs><style>.a{opacity:0;}.b,.c{fill:none;stroke:#fff;stroke-linecap:round;}.b{stroke-linejoin:round;stroke-width:1.5px;}.c{stroke-miterlimit:10;}</style></defs><g transform="translate(-813.917 -616.583)"><g class="a"><circle class="b" cx="20" cy="20" r="20" transform="translate(814.667 617.333)"/></g><rect class="b" width="20.845" height="11.106" rx="3" transform="translate(829.518 622.126) rotate(30)"/><path class="c" d="M835.5,626.5v11"/><path class="b" d="M830.44,637.792l-6.982,12.139a1.713,1.713,0,0,0,.489,2.348h0a1.8,1.8,0,0,0,2.494-.507c.008-.013,3.468-5.989,7.117-12.293"/><path class="b" d="M840.943,626.72l1.006-1.738a1.742,1.742,0,0,0-.587-2.348h0a1.8,1.8,0,0,0-2.495.508s-.412.715-1.1,1.9"/><path class="c" d="M840.5,629.5l-10,5"/></g></svg>