<svg xmlns="http://www.w3.org/2000/svg" width="40" height="40" viewBox="0 0 40 40"><defs><style>.a{opacity:0;}.b,.c,.d,.f{fill:none;}.b,.c,.d{stroke:#fff;}.b{stroke-miterlimit:10;}.b,.c{stroke-width:1.5px;}.c,.d{stroke-linecap:round;stroke-linejoin:round;}.e{stroke:none;}</style></defs><g transform="translate(-1186.976 -473.089)"><g class="a"><g class="b" transform="translate(1186.976 473.089)"><circle class="e" cx="20" cy="20" r="20"/><circle class="f" cx="20" cy="20" r="19.25"/></g></g><path class="c" d="M1211.126,504.849h4.393a2.986,2.986,0,0,1,2.986,2.987h0a1.164,1.164,0,0,1-1.164,1.164h-17.213a.992.992,0,0,1-.992-.992v-14.68c0-4.589,3.01-8.758,7.6-8.758"/><path class="c" d="M1203.286,498.393h1.845a6.457,6.457,0,0,1,6.457,6.456h0"/><rect class="c" width="10.146" height="12.913" rx="5.073" transform="translate(1206.976 477.179)"/><path class="d" d="M1.384,0H3.689a0,0,0,0,1,0,0V2.767a0,0,0,0,1,0,0H1.384A1.384,1.384,0,0,1,0,1.384v0A1.384,1.384,0,0,1,1.384,0Z" transform="translate(1203.286 481.79)"/><path class="d" d="M1.384,0H3.689a0,0,0,0,1,0,0V2.767a0,0,0,0,1,0,0H1.384A1.384,1.384,0,0,1,0,1.384v0A1.384,1.384,0,0,1,1.384,0Z" transform="translate(1220.811 484.558) rotate(180)"/><path class="c" d="M1215.971,488.447h0a2.6,2.6,0,0,1,2.534,2.659v16.972"/><path class="c" d="M1199,506.936c-1.4-.539-2.166-1.116-2.166-2.515V487.033a1.092,1.092,0,0,0-1.092-1.092h-2.6"/><line class="d" y2="8.301" transform="translate(1213.432 496.548)"/><line class="d" y2="2.913" transform="translate(1208.82 496.087)"/><path class="d" d="M1212.971,486.4a.922.922,0,1,1-1.845,0"/><path class="d" d="M1206.976,482.021a5.671,5.671,0,0,0,7.609-2.536,2.536,2.536,0,0,1,2.537,2.536"/></g></svg>