<svg xmlns="http://www.w3.org/2000/svg" width="40" height="40" viewBox="0 0 40 40"><defs><style>.a{opacity:0;}.b,.f,.g{fill:#fff;}.b,.c,.d,.e,.f,.g{stroke:#fff;stroke-linecap:round;}.b,.c,.d{stroke-linejoin:round;}.b,.c,.d,.f{stroke-miterlimit:10;}.c,.d,.e,.i{fill:none;}.c{stroke-width:1.5px;}.h{stroke:none;}</style></defs><g transform="translate(-452.258 -678.847)"><g class="a"><g class="b" transform="translate(452.258 678.847)"><circle class="h" cx="20" cy="20" r="20"/><circle class="i" cx="20" cy="20" r="19.5"/></g></g><path class="c" d="M463.761,700.44h.587V698h4.587v11.628H456V698h4.587v2.44h3.174Z"/><path class="d" d="M2.167,0h.984A2.167,2.167,0,0,1,5.318,2.167V6.532a0,0,0,0,1,0,0H0a0,0,0,0,1,0,0V2.167A2.167,2.167,0,0,1,2.167,0Z" transform="translate(459.809 703.096)"/><path class="c" d="M480.943,700.983V695h1.731v1.633h5.193V695H489.6v7.78"/><path class="d" d="M483.492,700.412v-.954c0-.579.8-1.048,1.779-1.048h0c.982,0,1.779.469,1.779,1.048v.706"/><g transform="translate(3 1.683)"><path class="c" d="M463.943,693.1v-6.66H471v5.278"/><path class="d" d="M466.021,690.256c0-.574.647-1.039,1.446-1.039h0c.8,0,1.445.465,1.445,1.039v1.514" transform="translate(0 -0.979)"/></g><path class="e" d="M.139,6.441,20.845-.447" transform="translate(469 703.347)"/><path class="e" d="M0,3.87l20.706-4.1" transform="translate(469.139 699.944)"/><line class="f" x1="13.451" y1="7.439" transform="translate(467.049 690.061)"/><path class="g" d="M13.047,7.172,0,.588" transform="translate(466.758 694.347)"/></g></svg>