<svg xmlns="http://www.w3.org/2000/svg" width="40" height="40" viewBox="0 0 40 40"><defs><style>.a{opacity:0;}.b,.c,.d,.f{fill:none;}.b,.c,.d{stroke:#fff;}.b{stroke-miterlimit:10;}.c,.d{stroke-linecap:round;stroke-linejoin:round;}.c{stroke-width:1.5px;}.d{fill-rule:evenodd;}.e{stroke:none;}</style></defs><g transform="translate(-696.737 -49.759)"><g class="a"><g class="b" transform="translate(696.737 49.759)"><circle class="e" cx="20" cy="20" r="20"/><circle class="f" cx="20" cy="20" r="19.5"/></g></g><path class="c" d="M709.774,61.176a6.664,6.664,0,0,0-6.519,5.6,6,6,0,0,0,2.227,11.57H718.93c3.285,0,5.722-2.3,5.722-5.15a5.221,5.221,0,0,0-3.514-4.972,4.811,4.811,0,0,0-2.2-3.639,4.56,4.56,0,0,0-3.675-.42A6.515,6.515,0,0,0,709.774,61.176Z"/><path class="d" d="M724.039,66.473l.838-.056a6.325,6.325,0,0,1,6.082,4.561,3.041,3.041,0,1,1,0,6.082h-4.585"/><path class="d" d="M723.046,69.914a4.525,4.525,0,0,1,4.352,3.263" transform="translate(-12 -1)"/></g></svg>