<svg xmlns="http://www.w3.org/2000/svg" width="40" height="40" viewBox="0 0 40 40"><defs><style>.a,.b,.c,.e{fill:none;}.a,.b,.c{stroke:#fff;}.a{stroke-miterlimit:10;opacity:0;}.b,.c{stroke-linecap:round;stroke-linejoin:round;}.b{stroke-width:1.5px;}.d{stroke:none;}</style></defs><g transform="translate(-1088.976 -388.089)"><g class="a" transform="translate(1088.976 388.089)"><circle class="d" cx="20" cy="20" r="20"/><circle class="e" cx="20" cy="20" r="19.5"/></g><path class="b" d="M1111.476,399.589v5a2.054,2.054,0,0,1-2,2h-7a2.054,2.054,0,0,1-2-2v-5"/><path class="b" d="M1103.476,414.589v6h-3v-11"/><path class="b" d="M1109.476,414.589v6h-3v-6"/><path class="b" d="M0,0H4.369A.631.631,0,0,1,5,.631V5.369A.631.631,0,0,1,4.369,6h0A4.369,4.369,0,0,1,0,1.631V0A0,0,0,0,1,0,0Z" transform="translate(1108.476 393.589)"/><path class="b" d="M4.629,0h0A.669.669,0,0,1,5.3.669V5.111a.669.669,0,0,1-.669.669H0a0,0,0,0,1,0,0V4.629A4.629,4.629,0,0,1,4.629,0Z" transform="translate(1103.298 399.369) rotate(-180)"/><path class="c" d="M1106.476,404.589l1-1c.573-.645-.137-1-1-1h-1c-.863,0-1.573.355-1,1l1,1C1105.874,405.037,1106.078,405.037,1106.476,404.589Z" transform="translate(0 -1)"/><line class="b" x2="11" transform="translate(1099.476 393.589)"/><path class="b" d="M1106.476,406.589h2a3.334,3.334,0,0,1,3,2l2,9h8c.71-.009.991.291,1,1v2h-10"/><line class="b" x2="6" transform="translate(1101.476 420.589)"/></g></svg>