<svg xmlns="http://www.w3.org/2000/svg" width="40" height="40" viewBox="0 0 40 40"><defs><style>.a{opacity:0;}.b,.c,.d,.f{fill:none;}.b,.c,.d{stroke:#fff;}.b{stroke-miterlimit:10;}.c,.d{stroke-linecap:round;stroke-linejoin:round;}.c{stroke-width:1.5px;}.e{stroke:none;}</style></defs><g transform="translate(-197.737 -225.759)"><g class="a"><g class="b" transform="translate(197.737 225.759)"><circle class="e" cx="20" cy="20" r="20"/><circle class="f" cx="20" cy="20" r="19.5"/></g></g><path class="c" d="M229.678,261.518h-8.984V246.545h0a8.586,8.586,0,0,1,8.759-.129l.225.129Z"/><path class="c" d="M221.32,246.212v-3.92h0a6.321,6.321,0,0,1,7.539-.134l.194.134v3.92"/><path class="c" d="M221.9,241.946V238.61h0a5.379,5.379,0,0,1,6.414-.114l.165.114v3.336"/><path class="c" d="M222.613,238.07v-2.61h0a4.4,4.4,0,0,1,5.147-.089h0v2.7"/><line class="c" y1="3.796" x2="2.574" transform="translate(222.613 231.664)"/><line class="c" x1="2.574" y1="3.707" transform="translate(225.186 231.664)"/><line class="c" x2="0.333" transform="translate(225.02 231.664)"/><line class="d" y2="1.331" transform="translate(225.186 230)"/><line class="d" y2="1.204" transform="translate(225.186 236.176)"/><line class="d" y2="1.204" transform="translate(224.355 239.789)"/><line class="d" y2="1.204" transform="translate(226.351 239.789)"/><line class="d" y2="0.998" transform="translate(225.186 244.216)"/><line class="d" y2="0.998" transform="translate(227.017 244.216)"/><line class="d" y2="0.998" transform="translate(223.356 244.216)"/><line class="d" y2="10.122" transform="translate(225.186 249.266)"/><line class="d" y2="10.122" transform="translate(227.017 249.266)"/><line class="d" y2="10.122" transform="translate(223.356 249.266)"/><path class="c" d="M214.779,261.518h-8.984V246.545h0a8.586,8.586,0,0,1,8.759-.129l.225.129Z"/><path class="c" d="M206.42,246.212v-3.92h0a6.321,6.321,0,0,1,7.539-.134l.194.134v3.92"/><path class="c" d="M207,241.946V238.61h0a5.379,5.379,0,0,1,6.414-.114l.165.114v3.336"/><path class="c" d="M207.713,238.07v-2.61h0a4.406,4.406,0,0,1,5.148-.089h0v2.7"/><line class="c" y1="3.796" x2="2.574" transform="translate(207.713 231.664)"/><line class="c" x1="2.574" y1="3.707" transform="translate(210.287 231.664)"/><line class="c" x2="0.333" transform="translate(210.12 231.664)"/><line class="d" y2="1.331" transform="translate(210.287 230)"/><line class="d" y2="1.204" transform="translate(210.287 236.176)"/><line class="d" y2="1.204" transform="translate(209.455 239.789)"/><line class="d" y2="1.204" transform="translate(211.451 239.789)"/><line class="d" y2="0.998" transform="translate(210.287 244.216)"/><line class="d" y2="0.998" transform="translate(212.117 244.216)"/><line class="d" y2="0.998" transform="translate(208.457 244.216)"/><line class="d" y2="10.122" transform="translate(210.287 249.266)"/><line class="d" y2="10.122" transform="translate(212.117 249.266)"/><line class="d" y2="10.122" transform="translate(208.457 249.266)"/><line class="d" x2="5.989" transform="translate(214.705 247.543)"/><line class="d" x2="5.989" transform="translate(214.705 250.205)"/></g></svg>