<svg xmlns="http://www.w3.org/2000/svg" width="40" height="40" viewBox="0 0 40 40"><defs><style>.a{opacity:0;}.b,.c,.d,.e,.g{fill:none;}.b,.c,.d,.e{stroke:#fff;}.b{stroke-miterlimit:10;}.c,.d,.e{stroke-linecap:round;}.c,.e{stroke-linejoin:round;}.c{stroke-width:1.5px;}.f{stroke:none;}</style></defs><g transform="translate(-232.258 -588.847)"><g class="a"><g class="b" transform="translate(232.258 588.847)"><circle class="f" cx="20" cy="20" r="20"/><circle class="g" cx="20" cy="20" r="19.5"/></g></g><path class="c" d="M256.242,600.973l-12.866,15.748H270Z"/><path class="d" d="M0,0,3.343,9.843" transform="translate(256.242 600.973)"/><line class="e" x1="1.486" transform="translate(259.659 606.618)"/><line class="e" x1="1.337" transform="translate(257.728 605.133)"/><path class="c" d="M245.32,603.5l-10.8,13.223h8.859l6.482-8.028Z"/><line class="e" x2="2.622" y2="7.722" transform="translate(245.32 603.498)"/><line class="e" x1="0.702" transform="translate(247.814 610.234)"/><line class="e" x1="1.247" transform="translate(248.189 608.239)"/><g transform="translate(11.061 8.317)"><path class="c" d="M249.447,600.973l-6.071,7.431h12.564Z"/><line class="e" x2="2.524" y2="7.431" transform="translate(249.447 600.973)"/><line class="e" x1="1.893" transform="translate(251.41 606.416)"/></g></g></svg>