<svg xmlns="http://www.w3.org/2000/svg" width="40" height="40" viewBox="0 0 40 40"><defs><style>.a{opacity:0;}.b,.c,.d,.f{fill:none;}.b,.c,.d{stroke:#fff;}.b{stroke-miterlimit:10;}.c,.d{stroke-linecap:round;stroke-linejoin:round;}.d{stroke-width:1.5px;}.e{stroke:none;}</style></defs><g transform="translate(-179.258 -506.847)"><g class="a"><g class="b" transform="translate(179.258 506.847)"><circle class="e" cx="20" cy="20" r="20"/><circle class="f" cx="20" cy="20" r="19.5"/></g></g><g transform="translate(0 0.847)"><rect class="c" width="4.052" height="2.963" transform="translate(210.502 540.694) rotate(-180)"/><rect class="c" width="4.052" height="2.963" transform="translate(188.45 537.731)"/><rect class="c" width="2.769" height="12.89" transform="translate(209.861 537.731) rotate(-180)"/><rect class="c" width="2.769" height="12.89" transform="translate(189.091 524.841)"/><path class="c" d="M207.405,516.684v4.638h2.769v-5.328" transform="translate(-0.314 0)"/><path class="c" d="M210.175,516.684v4.638h-2.769v-5.328" transform="translate(-18.314 0)"/><path class="c" d="M201.259,517.5v3.408h-3.081V517.5" transform="translate(-0.47 0.414)"/><path class="d" d="M0,0H26.847l-1,3.518H1Z" transform="translate(185.822 521.323)"/><path class="d" d="M199.056,513.834a54.336,54.336,0,0,1-13.623-1.725,26.835,26.835,0,0,0,.773,3.453,54.642,54.642,0,0,0,26.17-.228,27.683,27.683,0,0,0,.707-3.334A54.341,54.341,0,0,1,199.056,513.834Z"/></g></g></svg>