<svg xmlns="http://www.w3.org/2000/svg" width="40" height="40" viewBox="0 0 40 40"><defs><style>.a{opacity:0;}.b,.c,.d,.e,.g{fill:none;}.b,.c,.d,.e{stroke:#fff;stroke-miterlimit:10;}.c,.d,.e{stroke-linecap:round;}.c,.d{stroke-linejoin:round;}.c,.e{stroke-width:1.5px;}.f{stroke:none;}</style></defs><g transform="translate(-638.258 -678.847)"><g class="a"><g class="b" transform="translate(638.258 678.847)"><circle class="f" cx="20" cy="20" r="20"/><circle class="g" cx="20" cy="20" r="19.5"/></g></g><path class="c" d="M658.258,701.374h0a7.782,7.782,0,0,1-7.782-7.782V682.075l7.9,8.6,7.661-8.6v11.517A7.782,7.782,0,0,1,658.258,701.374Z"/><path class="d" d="M654.263,686.17,658.32,682l3.933,4.17"/><line class="e" y2="14.319" transform="translate(658.258 701.374)"/><path class="d" d="M658.258,708.39c0,.147.011.29.022.433.143.012.287.022.433.022a5.46,5.46,0,0,0,5.46-5.459c0-.146-.011-.29-.022-.433-.143-.012-.287-.022-.433-.022A5.46,5.46,0,0,0,658.258,708.39Z"/><path class="d" d="M652.8,706.978c-.146,0-.29.01-.433.021-.012.144-.022.287-.022.434a5.459,5.459,0,0,0,5.459,5.459c.147,0,.29-.011.433-.022.012-.143.022-.287.022-.433A5.459,5.459,0,0,0,652.8,706.978Z"/></g></svg>