<svg xmlns="http://www.w3.org/2000/svg" width="40" height="40" viewBox="0 0 40 40"><defs><style>.a{opacity:0;}.b,.c,.e{fill:none;}.b,.c{stroke:#fff;stroke-linecap:round;stroke-linejoin:round;}.b{stroke-width:1.5px;}.d{stroke:none;}</style></defs><g transform="translate(-987.759 -211.095)"><g class="a"><g class="b" transform="translate(987.759 211.095)"><circle class="d" cx="20" cy="20" r="20"/><circle class="e" cx="20" cy="20" r="19.25"/></g></g><path class="b" d="M1003.68,241.693a10.887,10.887,0,0,0,14.177-8.181m-19.134,4.733a10.893,10.893,0,1,1,18.627-10.756" transform="translate(-0.979 -0.856)"/><path class="c" d="M1019.856,226.587c4.019-.794,6.442-.817,6.842-.389.725.778-3.95,4.386-15.475,8.506s-18.908,4.825-19.633,4.047c-.4-.429.842-1.716,3.959-3.472" transform="translate(-1.385 -0.392)"/><circle class="c" cx="2" cy="2" r="2" transform="translate(1000.259 227.595)"/></g></svg>