<?xml version="1.0" encoding="utf-8"?>
<!-- Generator: Adobe Illustrator 16.0.0, SVG Export Plug-In . SVG Version: 6.00 Build 0)  -->
<!DOCTYPE svg PUBLIC "-//W3C//DTD SVG 1.1//EN" "http://www.w3.org/Graphics/SVG/1.1/DTD/svg11.dtd">
<svg version="1.1" id="Capa_1" xmlns="http://www.w3.org/2000/svg" xmlns:xlink="http://www.w3.org/1999/xlink" x="0px" y="0px"
	 width="25.359px" height="12.453px" viewBox="0 0 25.359 12.453" enable-background="new 0 0 25.359 12.453" xml:space="preserve">
<path fill="#6B6969" d="M25.344,6.346c0.021-0.078,0.021-0.16,0-0.238c-0.008-0.082-0.039-0.16-0.089-0.225
	c-0.013-0.027-0.028-0.054-0.045-0.08c-0.008-0.008-0.019-0.012-0.025-0.019c-0.007-0.007-0.01-0.019-0.019-0.027
	c-3.625-3.424-8.4-5.629-12.467-5.755h-0.036C8.597,0.128,3.815,2.328,0.195,5.755C0.187,5.763,0.184,5.774,0.176,5.782
	C0.168,5.79,0.158,5.793,0.151,5.801c-0.017,0.026-0.031,0.053-0.045,0.08C0.082,5.915,0.062,5.952,0.045,5.99
	C0.031,6.028,0.023,6.067,0.017,6.107c-0.021,0.078-0.021,0.16,0,0.238c0.006,0.04,0.015,0.079,0.028,0.117
	C0.062,6.5,0.082,6.536,0.106,6.57c0.014,0.028,0.029,0.055,0.046,0.08c0.011,0.012,0.023,0.021,0.034,0.032
	c0.011,0.011,0.006,0.01,0.01,0.014c3.625,3.425,8.4,5.63,12.468,5.755h0.036c4.126-0.127,8.786-2.279,12.467-5.755
	c0,0,0.006-0.01,0.01-0.015C25.18,6.676,25.2,6.662,25.21,6.65c0.017-0.025,0.032-0.052,0.045-0.08
	C25.305,6.505,25.336,6.427,25.344,6.346L25.344,6.346z M12.68,11.184c-3.6-0.118-7.812-2-11.155-4.958
	c3.343-2.955,7.557-4.84,11.155-4.958c3.6,0.118,7.813,2,11.154,4.958C20.492,9.182,16.278,11.067,12.68,11.184z"/>
<path fill="#666565" d="M12.68,3.043C10.922,3.006,9.467,4.402,9.431,6.16c-0.037,1.758,1.359,3.212,3.117,3.25
	s3.213-1.359,3.249-3.117c0.001-0.022,0.001-0.044,0.001-0.066C15.814,4.487,14.419,3.063,12.68,3.043z"/>
</svg>
