<svg xmlns="http://www.w3.org/2000/svg" width="40" height="40" viewBox="0 0 40 40"><defs><style>.a{opacity:0;}.b{fill:#fff;stroke-miterlimit:10;}.b,.c,.d,.e,.f{stroke:#fff;}.b,.c,.d,.e{stroke-linecap:round;}.b,.c,.d{stroke-linejoin:round;}.c,.d,.e,.f,.h{fill:none;}.c{stroke-width:1.5px;}.g{stroke:none;}</style></defs><g transform="translate(-183 -173)"><g transform="translate(-269.258 -512.847)"><g class="a" transform="translate(0 7)"><g class="b" transform="translate(452.258 678.847)"><circle class="g" cx="20" cy="20" r="20"/><circle class="h" cx="20" cy="20" r="19.5"/></g></g></g><g transform="translate(-3 -3)"><g transform="translate(1807.109 -242)"><rect class="c" width="14" height="12.445" transform="translate(-1608.109 439)"/><path class="d" d="M-1534.4,574.484h-5.355v-4.041a2.539,2.539,0,0,1,.944-1.909l1.771-1.534,1.73,1.542a2.527,2.527,0,0,1,.91,1.878Z" transform="translate(-63.854 -123.004)"/><line class="d" x2="14.85" transform="translate(-1608.609 435.5)"/><path class="e" d="M0,0H7" transform="translate(-1604.609 430.5)"/><line class="c" y2="3.076" transform="translate(-1601.609 424)"/><g transform="translate(-1608.959 427)"><path class="c" d="M-1558.454,458.447c0-4.829-7.773-6.293-7.773-8.927,0,2.634-7.773,4.1-7.773,8.927a7.589,7.589,0,0,0,.647,3.073h14.252A7.589,7.589,0,0,0-1558.454,458.447Z" transform="translate(1574 -449.52)"/></g></g><path class="c" d="M-1533.755,579h-6v-6.48a4.885,4.885,0,0,1,1.058-3.06l1.984-2.46,1.938,2.472a4.89,4.89,0,0,1,1.019,3.012Z" transform="translate(1752.755 -369.521)"/><path class="f" d="M1183.686,202.021h-5.394" transform="translate(-965)"/><g transform="translate(-20)"><path class="c" d="M-1533.755,579h-6v-6.48a4.885,4.885,0,0,1,1.058-3.06l1.984-2.46,1.938,2.472a4.89,4.89,0,0,1,1.019,3.012Z" transform="translate(1752.755 -369.521)"/><path class="f" d="M1183.686,202.021h-5.394" transform="translate(-965)"/></g></g><g transform="translate(5 -18.94)"><path class="d" d="M-1537.67,594.941h-2.085V579.854a62.548,62.548,0,0,1,.367-7.126s.349-.735.69-.728.673.755.673.755a63.111,63.111,0,0,1,.354,7.012Z" transform="translate(1753.67 -369.521)"/><path class="d" d="M-1537.67,594.941h-2.085V579.854a62.548,62.548,0,0,1,.367-7.126s.349-.735.69-.728.673.755.673.755a63.111,63.111,0,0,1,.354,7.012Z" transform="translate(1719.67 -369.521)"/></g></g></svg>