<svg xmlns="http://www.w3.org/2000/svg" width="40" height="40" viewBox="0 0 40 40"><defs><style>.a{opacity:0;}.b,.c,.d,.f{fill:none;}.b,.c,.d{stroke:#fff;}.b{stroke-miterlimit:10;}.c,.d{stroke-linecap:round;stroke-linejoin:round;stroke-width:1.5px;}.c{fill-rule:evenodd;}.e{stroke:none;}</style></defs><g transform="translate(-369.258 -656.847)"><g class="a"><g class="b" transform="translate(369.258 656.847)"><circle class="e" cx="20" cy="20" r="20"/><circle class="f" cx="20" cy="20" r="19.5"/></g></g><g transform="translate(0 0.885)"><path class="c" d="M402.758,676.347h-27s3,.621,3-3h21C399.758,676.968,402.758,676.347,402.758,676.347Z"/><path class="c" d="M403.758,669.347h-29a7.927,7.927,0,0,0,4-7h21A7.927,7.927,0,0,0,403.758,669.347Z"/><path class="c" d="M403.758,690.14h-29l4-9.793h21Z"/><line class="d" y1="4" transform="translate(399.758 669.347)"/><line class="d" y1="4" transform="translate(378.758 669.347)"/><line class="d" y1="4" transform="translate(399.758 676.347)"/><line class="d" y1="4" transform="translate(378.758 676.347)"/><path class="d" d="M2.5,0h0A2.5,2.5,0,0,1,5,2.5V5A0,0,0,0,1,5,5H0A0,0,0,0,1,0,5V2.5A2.5,2.5,0,0,1,2.5,0Z" transform="translate(386.758 685.14)"/><line class="d" y1="2.385" transform="translate(399.758 660.962)"/><line class="d" y1="2.385" transform="translate(378.758 660.962)"/></g></g></svg>