<svg xmlns="http://www.w3.org/2000/svg" width="40" height="40" viewBox="0 0 40 40"><defs><style>.a{opacity:0;}.b,.e,.f,.g,.i{fill:none;}.b,.c,.d,.e,.f,.g{stroke:#fff;}.b,.c,.d,.f{stroke-miterlimit:10;}.c,.d,.e,.f,.g{stroke-linecap:round;}.c,.e,.f{stroke-width:1.5px;}.e,.g{stroke-linejoin:round;}.h{stroke:none;}</style></defs><g transform="translate(-148.737 -31.759)"><g class="a"><g class="b" transform="translate(148.737 31.759)"><circle class="h" cx="20" cy="20" r="20"/><circle class="i" cx="20" cy="20" r="19.5"/></g></g><line class="c" x2="20.527" transform="translate(158.473 60.502)"/><line class="c" x2="13.685" transform="translate(161.894 51.379)"/><line class="c" x2="8.363" transform="translate(164.555 43.016)"/><line class="d" x2="16.726" transform="translate(160.374 62.5)"/><line class="d" x2="11.404" transform="translate(163.035 53.66)"/><rect class="e" width="17.106" height="7.983" transform="translate(160.184 60.502)"/><path class="f" d="M177.289,60.5c-1.469,0-2.66-2.553-2.66-5.7V51.379"/><path class="f" d="M160.184,60.5c1.469,0,2.661-2.553,2.661-5.7V51.379"/><path class="f" d="M174.438,51.379c-1.469,0-2.66-2.553-2.66-5.7V43.016"/><path class="f" d="M171.778,43.016c-1.47,0-3.041-4.58-3.041-5.7"/><path class="f" d="M165.7,43.016c1.469,0,3.041-4.58,3.041-5.7"/><path class="f" d="M163.035,51.379c1.469,0,2.661-2.553,2.661-5.7V43.016"/><rect class="g" width="2.281" height="3.421" transform="translate(167.596 43.016)"/><rect class="g" width="2.281" height="4.181" transform="translate(167.596 64.303)"/><rect class="g" width="2.281" height="3.041" transform="translate(172.158 65.444)"/><rect class="g" width="2.281" height="3.041" transform="translate(163.035 65.444)"/><line class="g" x2="1.845" transform="translate(165.751 45.667)"/><line class="g" x2="1.845" transform="translate(169.932 45.667)"/><line class="f" y2="1.14" transform="translate(168.737 34.034)"/></g></svg>