<svg xmlns="http://www.w3.org/2000/svg" width="40" height="40" viewBox="0 0 40 40"><defs><style>.a{opacity:0;}.b,.d,.e,.g{fill:none;}.b,.c,.d,.e{stroke:#fff;}.b,.c,.e{stroke-miterlimit:10;}.c{fill:#fff;}.c,.d,.e{stroke-linecap:round;}.d{stroke-linejoin:round;}.f{stroke:none;}</style></defs><g transform="translate(-944.229 -28.915)"><g class="a"><g class="b" transform="translate(944.229 28.915)"><circle class="f" cx="20" cy="20" r="20"/><circle class="g" cx="20" cy="20" r="19.5"/></g></g><line class="c" x2="4.366" transform="translate(962.046 36.752)"/><line class="c" y2="3" transform="translate(964.229 30)"/><path class="d" d="M966.2,34.315a.693.693,0,0,0-.673-.681h-2.594a.689.689,0,0,0-.673.681c-.154,3.5-.394,6.536-.7,9.185h5.43C966.68,40.834,966.41,37.795,966.2,34.315Z"/><path class="d" d="M967.383,46.5h-6.214a58.39,58.39,0,0,1-1.186,6h8.5C968.088,50.8,967.718,48.818,967.383,46.5Z"/><path class="d" d="M969.782,57h-11.3c-2.264,5.227-4.711,5.358-5.023,7.2H975C974.4,62.877,972,63.063,969.782,57Z"/><path class="d" d="M969.782,57H972.5l-2-4.5h-2.021"/><path class="d" d="M959.983,52.5h-2.025l-2,4.5h2.523"/><path class="d" d="M961.562,43.5h-.333l-2,3h1.94"/><path class="d" d="M967.383,46.5h1.792l-1.945-3h-.237"/><line class="c" x2="7.945" y2="3" transform="translate(961.229 43.5)"/><line class="c" x1="14.22" y2="4.397" transform="translate(956.28 52.5)"/><path class="e" d="M968.159,64.2c-.7-1.471-2.191-2.99-3.93-2.99S961,62.725,960.3,64.2"/></g></svg>