<svg xmlns="http://www.w3.org/2000/svg" width="40" height="40" viewBox="0 0 40 40"><defs><style>.a{opacity:0;}.b,.c,.d,.f{fill:none;}.b,.c,.d{stroke:#fff;}.b{stroke-miterlimit:10;}.c,.d{stroke-linecap:round;stroke-linejoin:round;}.c{stroke-width:1.5px;}.e{stroke:none;}</style></defs><g transform="translate(-261.258 -405.847)"><g class="a"><g class="b" transform="translate(261.258 405.847)"><circle class="e" cx="20" cy="20" r="20"/><circle class="f" cx="20" cy="20" r="19.5"/></g></g><rect class="c" width="10.742" height="7.138" transform="translate(275.806 426.566) rotate(10)"/><rect class="c" width="10.742" height="7.138" transform="translate(277.045 419.536) rotate(10)"/><line class="c" x2="14.581" y2="2.571" transform="translate(274.065 426.259)"/><path class="c" d="M285.454,442.838H271.41l1.676-9.5,13.539,2.387Z"/><line class="c" x2="14.581" y2="2.571" transform="translate(272.825 433.289)"/><line class="c" x2="14.581" y2="2.571" transform="translate(275.305 419.229)"/><rect class="c" width="10.742" height="7.138" transform="translate(278.285 412.506) rotate(10)"/><line class="c" x2="14.581" y2="2.571" transform="translate(276.544 412.199)"/><rect class="c" width="4.842" height="3.966" transform="translate(281.748 409.089) rotate(10)"/><line class="c" x2="6.77" y2="1.194" transform="translate(280.878 408.936)"/><path class="d" d="M1.058,0h.264A1.058,1.058,0,0,1,2.379,1.058V4.495a0,0,0,0,1,0,0H0a0,0,0,0,1,0,0V1.058A1.058,1.058,0,0,1,1.058,0Z" transform="translate(279.73 415.445) rotate(10)"/><path class="d" d="M1.058,0h.264A1.058,1.058,0,0,1,2.379,1.058V4.495a0,0,0,0,1,0,0H0a0,0,0,0,1,0,0V1.058A1.058,1.058,0,0,1,1.058,0Z" transform="translate(284.156 416.226) rotate(10)"/><path class="d" d="M1.058,0h.264A1.058,1.058,0,0,1,2.379,1.058V4.495a0,0,0,0,1,0,0H0a0,0,0,0,1,0,0V1.058A1.058,1.058,0,0,1,1.058,0Z" transform="translate(278.491 422.475) rotate(10)"/><path class="d" d="M1.058,0h.264A1.058,1.058,0,0,1,2.379,1.058V4.495a0,0,0,0,1,0,0H0a0,0,0,0,1,0,0V1.058A1.058,1.058,0,0,1,1.058,0Z" transform="translate(282.917 423.256) rotate(10)"/><path class="d" d="M1.058,0h.264A1.058,1.058,0,0,1,2.379,1.058V4.495a0,0,0,0,1,0,0H0a0,0,0,0,1,0,0V1.058A1.058,1.058,0,0,1,1.058,0Z" transform="translate(277.251 429.505) rotate(10)"/><path class="d" d="M275.044,442.641h-3.666l.981-5.676c.114-.647.98-1.035,1.933-.867h0c.954.168,1.89.99,1.776,1.637Z"/><path class="d" d="M279.994,442.838h-3.147l1.038-4.94a1.552,1.552,0,0,1,1.782-.965h0c.836.114,1.395.731,1.247,1.378Z" transform="translate(-0.463)"/><path class="d" d="M285.3,442.838h-4.427l.925-4.258c.11-.608,1.092-.947,2.194-.758h0c1.1.189,1.9.835,1.795,1.443Z"/><path class="d" d="M1.058,0h.264A1.058,1.058,0,0,1,2.379,1.058V4.495a0,0,0,0,1,0,0H0a0,0,0,0,1,0,0V1.058A1.058,1.058,0,0,1,1.058,0Z" transform="translate(281.677 430.286) rotate(10)"/></g></svg>