<svg xmlns="http://www.w3.org/2000/svg" width="40" height="40" viewBox="0 0 40 40"><defs><style>.a{opacity:0;}.b,.c,.d,.f{fill:none;}.b,.c,.d{stroke:#fff;}.b{stroke-miterlimit:10;}.c,.d{stroke-linecap:round;stroke-linejoin:round;}.d{stroke-width:1.5px;}.e{stroke:none;}</style></defs><g transform="translate(-232.258 -654.847)"><g class="a"><g class="b" transform="translate(232.258 654.847)"><circle class="e" cx="20" cy="20" r="20"/><circle class="f" cx="20" cy="20" r="19.5"/></g></g><rect class="c" width="6" height="2.667" rx="0.52" transform="translate(249.258 675.333)"/><path class="d" d="M254.418,684.388a27.721,27.721,0,0,1-.826-7.388" transform="translate(0 1.432)"/><path class="d" d="M254.839,691c.127.983.266,1.848.419,2.552" transform="translate(0 -1.552)"/><path class="d" d="M250.1,684.388a27.721,27.721,0,0,0,.826-7.388" transform="translate(0 1.432)"/><path class="d" d="M249.678,691c-.127.983-.266,1.848-.42,2.552" transform="translate(0 -1.552)"/><path class="c" d="M1.559,0H4.441A1.559,1.559,0,0,1,6,1.559V2.814a.52.52,0,0,1-.52.52H.52A.52.52,0,0,1,0,2.814V1.559A1.559,1.559,0,0,1,1.559,0Z" transform="translate(249.258 672)"/><rect class="c" width="3.333" height="1.667" transform="translate(250.592 670.333)"/><rect class="c" width="1.333" height="8.333" transform="translate(251.592 662)"/><line class="c" y2="6.056" transform="translate(252.258 656)"/><line class="d" x2="12" transform="translate(246.258 692)"/><rect class="c" width="7.333" height="2.667" rx="1" transform="translate(248.592 686.333)"/></g></svg>