<svg xmlns="http://www.w3.org/2000/svg" width="40" height="40" viewBox="0 0 40 40"><defs><style>.a{opacity:0;}.b,.c,.d,.f{fill:none;}.b,.c,.d{stroke:#fff;}.b{stroke-miterlimit:10;}.c,.d{stroke-linecap:round;stroke-linejoin:round;}.c{stroke-width:1.5px;}.e{stroke:none;}</style></defs><g transform="translate(-1090.229 -305.915)"><g class="a"><g class="b" transform="translate(1090.229 305.915)"><circle class="e" cx="20" cy="20" r="20"/><circle class="f" cx="20" cy="20" r="19.5"/></g></g><path class="c" d="M1111.729,324.415l11,8c.335.264,1,.574,1,1v4c0,.738-.262,1-1,1h-25c-.738,0-1-.262-1-1v-3c0-.368-.26-.739,0-1l10-9Z"/><path class="c" d="M1101.729,318.415a7.688,7.688,0,0,1,7,2"/><path class="d" d="M1110.729,320.415c2.121-.707,2.878-1.414,5,0"/><line class="c" y1="2" x2="2" transform="translate(1110.729 316.415)"/><line class="d" y1="3" x2="1" transform="translate(1109.729 312.415)"/><path class="d" d="M1103.729,328.415c.707,3.536,1.586,2.707,3,2s4.293,3,5,3,2,.121,2-2,.878-1.586,3-3"/></g></svg>