<svg xmlns="http://www.w3.org/2000/svg" width="21.668" height="21.668" viewBox="0 0 21.668 21.668"><defs><style>.a{fill:#fff;}</style></defs><path class="a" d="M142.733,3668.284h0a10.834,10.834,0,0,0-10.834,10.834h0a10.833,10.833,0,0,0,10.834,10.834h0a10.834,10.834,0,0,0,10.834-10.834h0A10.835,10.835,0,0,0,142.733,3668.284Zm3.022,6.581h-1.427c-.5,0-.609.206-.609.727v1.26h2.036l-.2,2.211h-1.84v6.6h-2.637v-6.577H139.71v-2.238h1.372v-1.764c0-1.654.885-2.518,2.847-2.518h1.826Z" transform="translate(-131.899 -3668.284)"/></svg>