<svg xmlns="http://www.w3.org/2000/svg" width="21.669" height="21.668" viewBox="0 0 21.669 21.668"><defs><style>.a{fill:#fff;}</style></defs><g transform="translate(-160.125 -3668.284)"><path class="a" d="M175.59,3675.615a1.962,1.962,0,0,0-1.127-1.127,3.257,3.257,0,0,0-1.1-.205c-.626-.029-.814-.035-2.4-.035s-1.774.006-2.4.035a3.257,3.257,0,0,0-1.1.205,1.962,1.962,0,0,0-1.127,1.127,3.28,3.28,0,0,0-.205,1.1c-.028.626-.034.814-.034,2.4s.006,1.775.034,2.4a3.287,3.287,0,0,0,.205,1.1,1.964,1.964,0,0,0,1.127,1.127,3.282,3.282,0,0,0,1.1.205c.627.028.814.034,2.4.034s1.774-.006,2.4-.034a3.282,3.282,0,0,0,1.1-.205,1.964,1.964,0,0,0,1.127-1.127,3.261,3.261,0,0,0,.205-1.1c.028-.626.035-.814.035-2.4s-.007-1.774-.035-2.4A3.254,3.254,0,0,0,175.59,3675.615Zm-4.63,6.554a3.05,3.05,0,1,1,3.05-3.051A3.051,3.051,0,0,1,170.96,3682.169Zm3.171-5.509a.712.712,0,1,1,.712-.713A.713.713,0,0,1,174.131,3676.66Z"/><path class="a" d="M170.96,3668.284a10.835,10.835,0,0,0-10.835,10.834h0a10.835,10.835,0,0,0,21.669,0h0A10.835,10.835,0,0,0,170.96,3668.284Zm5.9,13.284a4.363,4.363,0,0,1-.276,1.442,3.037,3.037,0,0,1-1.737,1.737,4.365,4.365,0,0,1-1.442.276c-.634.029-.836.036-2.449.036s-1.816-.007-2.45-.036a4.366,4.366,0,0,1-1.442-.276,3.037,3.037,0,0,1-1.737-1.737,4.363,4.363,0,0,1-.276-1.442c-.029-.634-.036-.836-.036-2.45s.007-1.815.036-2.449a4.363,4.363,0,0,1,.276-1.442,3.037,3.037,0,0,1,1.737-1.737,4.359,4.359,0,0,1,1.442-.276c.634-.029.836-.036,2.45-.036s1.815.007,2.449.036a4.359,4.359,0,0,1,1.442.276,3.037,3.037,0,0,1,1.737,1.737,4.363,4.363,0,0,1,.276,1.442c.029.634.036.836.036,2.449S176.893,3680.934,176.864,3681.568Z"/><circle class="a" cx="1.98" cy="1.98" r="1.98" transform="translate(168.979 3677.138)"/></g></svg>