<svg xmlns="http://www.w3.org/2000/svg" width="21.668" height="21.668" viewBox="0 0 21.668 21.668"><defs><style>.a{fill:#fff;}</style></defs><path class="a" d="M227.413,3668.284a10.835,10.835,0,0,0-10.834,10.834h0a10.834,10.834,0,0,0,21.668,0h0A10.834,10.834,0,0,0,227.413,3668.284Zm-2.67,15.663H222.5V3676.7h2.242Zm-1.132-8.192a1.337,1.337,0,1,1,1.326-1.337A1.331,1.331,0,0,1,223.611,3675.755Zm9.535,8.192h-2.232v-3.8c0-1.042-.4-1.624-1.221-1.624-.9,0-1.366.606-1.366,1.624v3.8h-2.151V3676.7h2.151v.976a2.527,2.527,0,0,1,2.183-1.2c1.536,0,2.636.938,2.636,2.879Z" transform="translate(-216.579 -3668.284)"/></svg>