<svg xmlns="http://www.w3.org/2000/svg" width="21.668" height="21.668" viewBox="0 0 21.668 21.668"><defs><style>.a{fill:#fff;}</style></defs><g transform="translate(-188.352 -3668.284)"><path class="a" d="M199.186,3668.284h0a10.835,10.835,0,0,0-10.834,10.834h0a10.834,10.834,0,0,0,10.834,10.834h0a10.833,10.833,0,0,0,10.834-10.834h0A10.834,10.834,0,0,0,199.186,3668.284Zm8.309,15.036a2.182,2.182,0,0,1-1.533,1.543,63.239,63.239,0,0,1-13.551,0,2.18,2.18,0,0,1-1.533-1.543,24.564,24.564,0,0,1,0-8.4,2.178,2.178,0,0,1,1.533-1.543,63.071,63.071,0,0,1,13.551,0,2.18,2.18,0,0,1,1.533,1.543,24.564,24.564,0,0,1,0,8.4Z"/><path class="a" d="M197.413,3681.7l4.532-2.578-4.532-2.578Z"/></g></svg>