<svg xmlns="http://www.w3.org/2000/svg" xmlns:xlink="http://www.w3.org/1999/xlink" width="26" height="26" viewBox="0 0 26 26"><defs><style>.a,.c{fill:#7a7a7a;}.a{stroke:#707070;}.b{clip-path:url(#a);}</style><clipPath id="a"><rect class="a" width="26" height="26" transform="translate(6197.999 55.999)"/></clipPath></defs><g class="b" transform="translate(-6197.999 -55.999)"><g transform="translate(6199.071 57.118)"><g transform="translate(0 0)"><path class="c" d="M11.889,22.646H2.972a.991.991,0,0,1-.991-.991V3.822a.991.991,0,0,1,.991-.991h8.916a.991.991,0,0,0,0-1.981H2.972A2.976,2.976,0,0,0,0,3.822V21.655a2.976,2.976,0,0,0,2.972,2.972h8.916a.991.991,0,0,0,0-1.981Z" transform="translate(0 -0.85)"/></g><g transform="translate(7.926 4.954)"><path class="c" d="M185.735,113.394l-6.024-5.944a.991.991,0,1,0-1.391,1.411l4.3,4.248H171.091a.991.991,0,0,0,0,1.981h11.535l-4.3,4.248a.991.991,0,1,0,1.391,1.411l6.024-5.944a.99.99,0,0,0,0-1.411Z" transform="translate(-170.1 -107.165)"/></g></g></g></svg>