<svg xmlns="http://www.w3.org/2000/svg" width="15" height="15" viewBox="0 0 15 15"><defs><style>.a{fill:#c7c7c7;stroke:#c7c7c7;}.b{fill:#707070;}.c{stroke:none;}.d{fill:none;}</style></defs><g transform="translate(-513 -769)"><g transform="translate(513 769)"><g class="a"><rect class="c" width="15" height="15" rx="7.5"/><rect class="d" x="0.5" y="0.5" width="14" height="14" rx="7"/></g><g transform="translate(4.57 4.461)"><path class="b" d="M19.473,13.883a.7.7,0,0,0-.991,0l-1.8,1.8-1.8-1.8a.7.7,0,0,0-.991.991l1.8,1.8-1.8,1.8a.7.7,0,0,0,.991.991l1.8-1.8,1.8,1.8a.7.7,0,0,0,.991-.991l-1.8-1.8,1.8-1.8A.7.7,0,0,0,19.473,13.883Z" transform="translate(-13.678 -13.678)"/></g></g></g></svg>