<svg xmlns="http://www.w3.org/2000/svg" width="25" height="25" viewBox="0 0 25 25"><defs><style>.a{fill:rgba(29,29,27,0.5);}</style></defs><path class="a" d="M122.5,102a12.464,12.464,0,1,1-8.852,3.654A12.41,12.41,0,0,1,122.5,102Zm7.828,4.639a11.1,11.1,0,1,0,0,15.722,11.064,11.064,0,0,0,0-15.722Z" transform="translate(-110 -102)"/><path class="a" d="M326.949,221.906a.747.747,0,0,1-.984,0,.672.672,0,0,1,0-.985l2.951-2.956a.668.668,0,0,1,.984,0l2.951,2.956a.7.7,0,0,1-.984.985l-2.459-2.463Z" transform="translate(-316.908 -212.998)"/><path class="a" d="M398,218.7a.7.7,0,1,1,1.393,0v14.08a.7.7,0,1,1-1.393,0Z" transform="translate(-386.197 -213.238)"/></svg>