<svg xmlns="http://www.w3.org/2000/svg" width="19.281" height="19.281" viewBox="0 0 19.281 19.281"><defs><style>.a,.b{fill:#ec6502;}.a{stroke:#ec6502;}</style></defs><g transform="translate(0.5 0.5)"><path class="a" d="M14.141,5.409A8.534,8.534,0,0,1,22.672,13.7v8.775H14.059a8.531,8.531,0,0,1,.081-17.062m0-.609a9.141,9.141,0,0,0-.081,18.281h9.222V13.7a9.145,9.145,0,0,0-9.141-8.9Z" transform="translate(-5 -4.8)"/><path class="b" d="M48.481,44.7a.972.972,0,0,0-.981.981v4.986a.981.981,0,1,0,1.963,0V45.681A.972.972,0,0,0,48.481,44.7Z" transform="translate(-39.263 -37.097)"/><path class="b" d="M48.481,37.7a.972.972,0,0,0-.981.981h0a.981.981,0,1,0,.981-.981Z" transform="translate(-39.263 -32.845)"/></g></svg>