<svg xmlns="http://www.w3.org/2000/svg" xmlns:xlink="http://www.w3.org/1999/xlink" width="126" height="126" viewBox="0 0 126 126"><defs><style>.a{fill:#fff;stroke:#707070;}.b{clip-path:url(#a);}.c{fill:#00855a;stroke:#00855a;stroke-linecap:round;stroke-linejoin:round;}</style><clipPath id="a"><rect class="a" width="126" height="126" transform="translate(716.5 4273.5)"/></clipPath></defs><g class="b" transform="translate(-716.5 -4273.5)"><g transform="translate(717.042 4269.143)"><path class="c" d="M1,61H123.917v3.965H1Z" transform="translate(0 46.492)"/><path class="c" d="M22,39h3.965v3.965H22Z" transform="translate(20.633 24.876)"/><path class="c" d="M14,39h3.965v3.965H14Z" transform="translate(12.773 24.876)"/><path class="c" d="M18,39h3.965v3.965H18Z" transform="translate(16.703 24.876)"/><path class="c" d="M18,43h3.965v3.965H18Z" transform="translate(16.703 28.806)"/><path class="c" d="M14,43h3.965v3.965H14Z" transform="translate(12.773 28.806)"/><path class="c" d="M22,43h3.965v3.965H22Z" transform="translate(20.633 28.806)"/><path class="c" d="M18,47h3.965v3.965H18Z" transform="translate(16.703 32.736)"/><path class="c" d="M22,47h3.965v3.965H22Z" transform="translate(20.633 32.736)"/><path class="c" d="M14,47h3.965v3.965H14Z" transform="translate(12.773 32.736)"/><path class="c" d="M14,51h3.965v3.965H14Z" transform="translate(12.773 36.667)"/><path class="c" d="M22,51h3.965v3.965H22Z" transform="translate(20.633 36.667)"/><path class="c" d="M18,51h3.965v3.965H18Z" transform="translate(16.703 36.667)"/><path class="c" d="M16,31h3.965v3.965H16Z" transform="translate(14.738 17.016)"/><path class="c" d="M24,31h3.965v3.965H24Z" transform="translate(22.598 17.016)"/><path class="c" d="M20,31h3.965v3.965H20Z" transform="translate(18.668 17.016)"/><path class="c" d="M28,31h3.965v3.965H28Z" transform="translate(26.528 17.016)"/><path class="c" d="M24,27h3.965v3.965H24Z" transform="translate(22.598 13.086)"/><path class="c" d="M28,27h3.965v3.965H28Z" transform="translate(26.528 13.086)"/><path class="c" d="M20,27h3.965v3.965H20Z" transform="translate(18.668 13.086)"/><path class="c" d="M16,27h3.965v3.965H16Z" transform="translate(14.738 13.086)"/><path class="c" d="M16,23h3.965v3.965H16Z" transform="translate(14.738 9.156)"/><path class="c" d="M24,23h3.965v3.965H24Z" transform="translate(22.598 9.156)"/><path class="c" d="M20,23h3.965v3.965H20Z" transform="translate(18.668 9.156)"/><path class="c" d="M28,23h3.965v3.965H28Z" transform="translate(26.528 9.156)"/><path class="c" d="M86.249,66.581H92.2A13.9,13.9,0,0,0,106.074,52.7V50.72H96.161a13.825,13.825,0,0,0-9.913,4.185v-8.15H92.2a13.9,13.9,0,0,0,13.878-13.878V30.9H96.161a13.828,13.828,0,0,0-10.02,4.3A13.892,13.892,0,0,0,72.371,22.965H66.423V19H22.808V50.72H18.843v39.65H1v3.965H123.917V90.371H86.249Zm9.913-11.9h5.747a9.93,9.93,0,0,1-9.712,7.93H86.449A9.928,9.928,0,0,1,96.161,54.685Zm0-19.825h5.747A9.93,9.93,0,0,1,92.2,42.79H86.449A9.928,9.928,0,0,1,96.161,34.86ZM82.283,90.371H66.423V54.465a13.825,13.825,0,0,0,9.913,4.185h5.948v31.72ZM66.624,46.755h5.747a9.928,9.928,0,0,1,9.712,7.93H76.336A9.928,9.928,0,0,1,66.624,46.755ZM72.371,26.93a9.928,9.928,0,0,1,9.712,7.93H76.336a9.928,9.928,0,0,1-9.712-7.93Zm3.965,11.9h5.948v8.15a13.825,13.825,0,0,0-9.913-4.185H66.423V34.64A13.825,13.825,0,0,0,76.336,38.825ZM26.773,22.965H62.458V90.371h-7.93V50.72H26.773Zm-3.965,31.72H50.563V90.371H22.808Z" transform="translate(0 5.226)"/></g></g></svg>