<svg xmlns="http://www.w3.org/2000/svg" xmlns:xlink="http://www.w3.org/1999/xlink" width="126" height="126" viewBox="0 0 126 126"><defs><style>.a{fill:#fff;stroke:#707070;}.b{clip-path:url(#a);}.c{fill:#00855a;stroke:#00855a;stroke-linecap:round;stroke-linejoin:round;}</style><clipPath id="a"><rect class="a" width="126" height="126" transform="translate(1078.5 4273.5)"/></clipPath></defs><g class="b" transform="translate(-1078.5 -4273.5)"><g transform="translate(1056.08 4222.227) rotate(30)"><g transform="translate(113.937 57.108)"><path class="c" d="M183.521,281.747l-4.507-20.288a1.64,1.64,0,0,0-3.2.711l4.507,20.288a1.64,1.64,0,0,0,3.2-.711Z" transform="translate(-175.773 -260.174)"/></g><g transform="translate(124.512 57.109)"><g transform="translate(0)"><path class="c" d="M228.726,281.985l-1.5-20.288a1.64,1.64,0,0,0-3.271.242l1.5,20.288a1.64,1.64,0,0,0,1.634,1.519c.041,0,.082,0,.123,0A1.64,1.64,0,0,0,228.726,281.985Z" transform="translate(-223.948 -260.178)"/></g></g><g transform="translate(133.581 57.109)"><path class="c" d="M268.531,260.183a1.642,1.642,0,0,0-1.757,1.514l-1.5,20.288a1.64,1.64,0,0,0,1.514,1.757c.041,0,.082,0,.123,0a1.64,1.64,0,0,0,1.634-1.519l1.5-20.288A1.639,1.639,0,0,0,268.531,260.183Z" transform="translate(-265.267 -260.178)"/></g><g transform="translate(141.146 57.108)"><path class="c" d="M306.232,260.214a1.639,1.639,0,0,0-1.957,1.245l-4.507,20.288a1.64,1.64,0,1,0,3.2.711l4.507-20.287A1.64,1.64,0,0,0,306.232,260.214Z" transform="translate(-299.73 -260.175)"/></g><g transform="translate(96.547)"><g transform="translate(0)"><path class="c" d="M131.547,0A35.018,35.018,0,0,0,98.2,45.646c0,.011.007.021.01.032l.006.023c0,.017.009.035.014.052.011.034.023.068.036.1s.014.039.022.058.007.019.011.029q.55,1.235,1.088,2.454c5.829,13.2,10.747,25.51,12.909,39.75A6.162,6.162,0,0,0,116.165,93v12.093a7.3,7.3,0,0,0,7.292,7.292h16.18a7.3,7.3,0,0,0,7.292-7.292V93a6.162,6.162,0,0,0,3.87-4.855c2.161-14.231,7.073-26.53,12.9-39.722q.545-1.234,1.1-2.481a1.658,1.658,0,0,0,.069-.188c.005-.017.009-.034.014-.052l.006-.024A35.018,35.018,0,0,0,131.547,0Zm12.1,102.954H131a1.64,1.64,0,0,0,0,3.28h12.483a4.017,4.017,0,0,1-3.844,2.87h-16.18a4.017,4.017,0,0,1-3.844-2.87h3.753a1.64,1.64,0,0,0,0-3.28h-3.921V99.383h3.921a1.64,1.64,0,0,0,0-3.28h-3.921V93.415h24.2V96.1H131a1.64,1.64,0,1,0,0,3.28h12.652ZM160.6,47.309l-.049.112,0,.006c-5.857,13.287-10.792,25.723-12.994,40.225a2.894,2.894,0,0,1-2.447,2.45l-.038,0c-.074.01-.139.017-.2.022s-.122.008-.185.008H118.407c-.062,0-.123,0-.184-.008s-.127-.012-.2-.022l-.038,0a2.894,2.894,0,0,1-2.447-2.45c-2.2-14.5-7.137-26.938-12.994-40.225l0-.006-.05-.112-.072-.164c.26.021.521.039.781.06q.828.066,1.656.126,1.075.08,2.15.154.833.057,1.667.11,1.074.068,2.148.13.834.048,1.668.093,1.082.057,2.164.107c.549.026,1.1.052,1.648.075q1.1.047,2.209.085c.534.019,1.068.04,1.6.057.771.025,1.542.044,2.312.064.5.013,1,.027,1.5.038.856.018,1.711.03,2.568.042.415.006.829.014,1.244.019q3.814.04,7.628,0c.4,0,.809-.013,1.213-.018.867-.012,1.734-.025,2.6-.043.488-.01.975-.025,1.463-.037.783-.02,1.566-.04,2.349-.065.525-.017,1.05-.037,1.575-.056q1.118-.04,2.235-.086c.543-.023,1.087-.049,1.63-.074q1.091-.051,2.182-.108.828-.044,1.655-.092,1.079-.062,2.157-.131.832-.053,1.663-.11,1.078-.074,2.156-.155.824-.062,1.647-.126c.262-.021.525-.039.787-.06Zm1.446-3.575q-.818.07-1.638.136c-.6.049-1.2.1-1.8.146-.691.053-1.382.1-2.073.149-.594.042-1.187.086-1.781.124-.7.046-1.4.086-2.1.128-.585.035-1.17.072-1.755.1-.716.039-1.432.072-2.148.106-.572.028-1.143.058-1.715.083-.738.032-1.476.058-2.214.085-.551.021-1.1.044-1.654.062-.775.025-1.551.044-2.327.064-.514.013-1.028.03-1.543.041-.861.019-1.723.03-2.584.043-.429.006-.859.016-1.288.021q-1.936.021-3.872.021h-.009q-1.931,0-3.863-.021c-.436,0-.871-.015-1.306-.021-.855-.013-1.711-.024-2.566-.042-.52-.011-1.04-.028-1.56-.042-.77-.02-1.54-.038-2.309-.063-.557-.018-1.113-.042-1.67-.063-.732-.027-1.465-.053-2.2-.085-.577-.025-1.153-.056-1.729-.083-.712-.034-1.423-.067-2.134-.106-.589-.032-1.177-.069-1.766-.1-.7-.041-1.4-.081-2.094-.127-.6-.039-1.192-.083-1.788-.125-.689-.049-1.378-.1-2.067-.148-.6-.046-1.2-.1-1.8-.146-.545-.045-1.091-.089-1.636-.136a31.72,31.72,0,1,1,61,0Z" transform="translate(-96.547)"/></g></g></g></g></svg>