<svg xmlns="http://www.w3.org/2000/svg" xmlns:xlink="http://www.w3.org/1999/xlink" width="126" height="126" viewBox="0 0 126 126"><defs><style>.a{fill:#fff;stroke:#707070;}.b{clip-path:url(#a);}.c{fill:#00855a;}</style><clipPath id="a"><rect class="a" width="126" height="126" transform="translate(354.5 4273.5)"/></clipPath></defs><g class="b" transform="translate(-354.5 -4273.5)"><path class="c" d="M89.422,83.086l-17.9-6.406L66.474,70.3A30.2,30.2,0,0,0,48.793,59.395C47.73,47.321,30.68,31.709,10.569,36.7a2.882,2.882,0,0,0-2.086,2.035A32.949,32.949,0,0,0,11.063,62.67L.472,78.829A2.882,2.882,0,0,0,0,80.409v21.186a2.882,2.882,0,0,0,2.882,2.882H9.476a12.6,12.6,0,0,0,24.536,0H56.824a12.6,12.6,0,0,0,24.536,0h7.091a2.882,2.882,0,0,0,2.882-2.882V85.8a2.882,2.882,0,0,0-1.911-2.714ZM13.641,41.933A26.757,26.757,0,0,1,41.451,55a11,11,0,0,1,.1,11.416A87.307,87.307,0,0,0,29.3,53.09,2.882,2.882,0,0,0,25.467,57.4a81.019,81.019,0,0,1,12,13.213,10.715,10.715,0,0,1-11.7-.164A27.322,27.322,0,0,1,13.641,41.933Zm8.1,66.5a6.84,6.84,0,1,1,6.84-6.84,6.848,6.848,0,0,1-6.84,6.84Zm47.348,0a6.84,6.84,0,1,1,6.84-6.84A6.848,6.848,0,0,1,69.092,108.435Zm16.477-9.722H81.36a12.6,12.6,0,0,0-24.536,0H34.012a12.6,12.6,0,0,0-24.536,0H5.764V81.27l8.73-13.319c6.85,8.616,16.746,13.375,26.145,7.472A65.085,65.085,0,0,1,45.616,85.6,2.882,2.882,0,1,0,51,83.531a71.113,71.113,0,0,0-5.981-12,17.553,17.553,0,0,0,3.257-6.346,24.477,24.477,0,0,1,13.682,8.7l5.56,7.026c.716.9-.026.454,18.054,6.925V98.713Z" transform="translate(371.5 4261.757)"/></g></svg>