<?xml version="1.0" encoding="utf-8"?>
<!-- Generator: Adobe Illustrator 16.0.0, SVG Export Plug-In . SVG Version: 6.00 Build 0)  -->
<!DOCTYPE svg PUBLIC "-//W3C//DTD SVG 1.1//EN" "http://www.w3.org/Graphics/SVG/1.1/DTD/svg11.dtd">
<svg version="1.1" id="Capa_1" xmlns="http://www.w3.org/2000/svg" xmlns:xlink="http://www.w3.org/1999/xlink" x="0px" y="0px"
	 width="22px" height="22px" viewBox="0 0 22 22" enable-background="new 0 0 22 22" xml:space="preserve">
<g transform="translate(-443 -548)">
	<g transform="translate(1 -2)">
		<path fill="#FFFFFF" d="M453.5,552L453.5,552c0.553,0,1,0.448,1,1v13c0,0.553-0.447,1-1,1l0,0c-0.552,0-1-0.447-1-1v-13
			C452.5,552.448,452.948,552,453.5,552z"/>
		<path fill="#FFFFFF" d="M447.843,560.707L447.843,560.707c0.39-0.391,1.023-0.391,1.414,0l4.95,4.949
			c0.391,0.391,0.391,1.023,0,1.414l0,0c-0.391,0.391-1.023,0.391-1.414,0l-4.95-4.949
			C447.453,561.73,447.453,561.098,447.843,560.707z"/>
		<path fill="#FFFFFF" d="M459.45,560.707L459.45,560.707c0.391,0.391,0.391,1.023,0,1.414l-4.95,4.95
			c-0.391,0.39-1.023,0.39-1.414,0l0,0c-0.39-0.391-0.39-1.024,0-1.415l4.95-4.949C458.426,560.316,459.06,560.316,459.45,560.707z"
			/>
		<path fill="#FFFFFF" d="M446,569.5L446,569.5c0-0.553,0.448-1,1-1h13c0.553,0,1,0.447,1,1l0,0c0,0.553-0.447,1-1,1h-13
			C446.448,570.5,446,570.053,446,569.5z"/>
	</g>
</g>
</svg>
