<svg xmlns="http://www.w3.org/2000/svg" xmlns:xlink="http://www.w3.org/1999/xlink" width="126" height="126" viewBox="0 0 126 126"><defs><style>.a{fill:#fff;stroke:#707070;}.b{clip-path:url(#a);}.c{fill:#00855a;}</style><clipPath id="a"><rect class="a" width="126" height="126" transform="translate(1440.5 4273.5)"/></clipPath></defs><g class="b" transform="translate(-1440.5 -4273.5)"><g transform="translate(1450.815 4285.5)"><g transform="translate(2.685)"><g transform="translate(0)"><path class="c" d="M97.554,19.7l-1.983-5.153-3.477,4.288c-.109.137-11.1,13.523-25.569,15.589-2.746.393-5.309.9-7.787,1.475.68-11.247-3.911-21.977-13.664-31.967L41.222,0l-1.5,5.3c-.035.112-3.362,11.563-11.812,16.719-9.258,5.667-15.155,11.93-18,19.133a28.094,28.094,0,0,0-.2,21.332A19.091,19.091,0,0,0,20.03,72.9a14.317,14.317,0,0,0,1.4.453,29.114,29.114,0,0,0,.83,9.479c-1.721.15-3.365.227-4.9.227a40.7,40.7,0,0,1-12.48-1.708l-2.193,6a45.86,45.86,0,0,0,14.686,2.091,63.042,63.042,0,0,0,7.4-.463A24.075,24.075,0,0,0,28.6,94.023a26.37,26.37,0,0,0,19.1,7.024A49.937,49.937,0,0,0,77.39,90.405l.935-.734C87.1,82.795,113.784,61.9,97.554,19.7ZM22.5,67l-.051-.019a12.6,12.6,0,0,1-6.893-7.024,21.69,21.69,0,0,1,.275-16.451c2.318-5.877,7.343-11.123,15.391-16.039A34.8,34.8,0,0,0,43.888,12.186a32.819,32.819,0,0,1,8.2,25.54A47.15,47.15,0,0,0,33.119,48.874,40.405,40.405,0,0,0,22.5,67ZM74.4,84.63l-.958.757C60.46,95.67,41.244,97.633,33.119,89.508a17.337,17.337,0,0,1-1.5-1.718c13.067-2.975,28.994-10.669,45.353-28.34l-4.687-4.339C56.29,72.393,40.912,79.455,28.631,81.929a22.826,22.826,0,0,1-.757-9.2A32.883,32.883,0,0,1,37.63,53.385c6.58-6.583,16.33-10.717,29.8-12.639A49.407,49.407,0,0,0,93.288,26.862C104.13,61.35,82.7,78.137,74.4,84.63Z" transform="translate(-2.685)"/><path class="c" d="M372.157,233.278l4.881,4.115q2.043-2.429,4.093-5.079l-5.057-3.9C374.768,230.111,373.46,231.727,372.157,233.278Z" transform="translate(-298.436 -182.84)"/></g></g></g></g></svg>