<svg xmlns="http://www.w3.org/2000/svg" xmlns:xlink="http://www.w3.org/1999/xlink" width="26" height="26" viewBox="0 0 26 26"><defs><style>.a,.c{fill:#9f9f9f;}.a{stroke:#707070;}.b{clip-path:url(#a);}.c{fill-rule:evenodd;}</style><clipPath id="a"><rect class="a" width="26" height="26" transform="translate(119 54.589)"/></clipPath></defs><g class="b" transform="translate(-119 -54.589)"><g transform="translate(1 5)"><path class="c" d="M120.564,70.748a3.331,3.331,0,0,1-.359-3.031,1,1,0,0,1,.672-.727q2.755-.8,5.506-1.621a.808.808,0,0,1,.971.33c.478.624.981,1.226,1.462,1.847a.4.4,0,0,0,.637.108c.875-.626,1.779-1.214,2.624-1.88a17.857,17.857,0,0,0,4.006-4.726.45.45,0,0,0-.12-.7c-.613-.467-1.2-.973-1.813-1.436a.819.819,0,0,1-.325-1.006c.526-1.755,1.053-3.514,1.547-5.28a1.161,1.161,0,0,1,.9-.9,3.7,3.7,0,0,1,3.442.754,7.652,7.652,0,0,1,1.979,2.675,5.176,5.176,0,0,1,.327,3.609,19.347,19.347,0,0,1-4.637,8.4,20.593,20.593,0,0,1-8.081,5.751,9.58,9.58,0,0,1-3.3.857A6.623,6.623,0,0,1,120.564,70.748Zm19.753-15.163a13.5,13.5,0,0,0-1.256-1.784,2.346,2.346,0,0,0-1.954-.811.422.422,0,0,0-.483.355Q136,55.529,135.341,57.7a.376.376,0,0,0,.154.469c.581.464,1.142.953,1.71,1.434a1.192,1.192,0,0,1,.325,1.546,13.708,13.708,0,0,1-1.007,1.805,19.618,19.618,0,0,1-5.875,5.608c-1.881,1.175-2.132.766-3.25-.523a10.583,10.583,0,0,1-.719-.906.475.475,0,0,0-.625-.216q-2.091.648-4.2,1.242a.476.476,0,0,0-.416.556,2.5,2.5,0,0,0,.781,1.893,5.878,5.878,0,0,0,3.325,1.749,3.169,3.169,0,0,0,.984-.075,17.479,17.479,0,0,0,8.586-4.8,19.24,19.24,0,0,0,4.522-6.167c.462-1.084.768-2.233,1.133-3.358a3.46,3.46,0,0,0,.077-.591q.044-.02.087-.036A11.25,11.25,0,0,0,140.317,55.585Z"/></g></g></svg>