<svg xmlns="http://www.w3.org/2000/svg" width="241.331" height="45.885" viewBox="0 0 241.331 45.885"><defs><style>.a{fill:#fff;}</style></defs><g transform="translate(-131.899 -3492.067)"><path class="a" d="M154.181,3529.987c-9.6-.917-18.1-5.528-21.249-10.845a47.819,47.819,0,0,0,1.82,4.61c.381,1.051.935,1.907,1.186,2.678,3.976,2.814,8.54,4.285,14.808,4.883,6.465.616,12.151-.174,16.632-2.317a38.1,38.1,0,0,1-13.2.991"/><path class="a" d="M146.7,3510.652a120.779,120.779,0,0,1-8.841-10.765c-.351.454-.741.985-1.147,1.586a23.688,23.688,0,0,0-1.365,2.245c2.529,2.772,5.331,5.568,8.368,8.313a120.033,120.033,0,0,0,23.82,16.57c-6.076-4.472-13.433-9.91-20.835-17.949"/><path class="a" d="M160.361,3504.3a73.62,73.62,0,0,0-7.253-11.993c-.368.039-.987.35-2.082.519a11.661,11.661,0,0,0-2.315.313,72.839,72.839,0,0,1,11.188,15.48,84.379,84.379,0,0,1,8.056,19.631c-.747-7.166-2.936-14.673-7.594-23.95"/><path class="a" d="M156.32,3537.592c-12.011,0-21.744-9.412-21.744-21.029s9.672-20.691,21.687-20.691c11.776,0,21.426,8.713,21.794,20.016.01-.289.017-.583.017-.878a23.039,23.039,0,1,0-15.965,21.829,22.484,22.484,0,0,1-5.789.753"/><path class="a" d="M143.882,3505.3c8.229-8.39,21.032-9.024,28.6-1.42a18.863,18.863,0,0,1,4.874,17.668c2.136-7.151.828-15.261-4.6-20.724-7.961-8-21.381-7.5-29.612.892a21.777,21.777,0,0,0-5.789,20.039,22.382,22.382,0,0,1,6.528-16.455"/><path class="a" d="M176.94,3517.084c-.066-5.048-1.993-9.717-5.543-12.162-6.867-4.721-17.531-1.028-24.18,8.68a26.121,26.121,0,0,0-4.849,15.43c-1.519-5.684-.268-12.726,3.91-18.829,6.65-9.71,18.171-13.357,25.737-8.15,4.484,3.081,6.665,8.626,6.238,14.618,0,0-.137,1.724-.3,2.479-.153.714-.55,2.267-.707,2.724s-.309-4.79-.309-4.79"/><path class="a" d="M154.128,3514.151c-6.775,7.189-8.309,16.751-3.425,21.356a7.264,7.264,0,0,0,.682.574c-4.306-4.3-3.01-12.542,2.941-18.971,5.468-5.913,14.777-8.5,19.283-4.248,3.969,3.747,3.435,10.935-.919,17.013,6.036-7.057,7.232-15.989,2.561-20.4-4.889-4.6-14.344-2.518-21.123,4.671"/><path class="a" d="M160.457,3521.477c-4.563,3.963-6.085,9.676-3.41,12.765,2.1,2.417,6.163,2.5,10.014.52-3.239,1.494-6.582,1.312-8.36-.741-2.386-2.735-1.08-7.762,2.9-11.224s9.141-4.048,11.52-1.31c1.782,2.051,1.5,5.385-.434,8.388,2.5-3.536,2.985-7.569.88-9.987-2.679-3.088-8.551-2.376-13.113,1.589"/><path class="a" d="M204.447,3517.37a3.9,3.9,0,0,1,3.255,4.113,6.829,6.829,0,0,1-2.217,4.764c-1.54,1.422-3.167,1.955-6.571,1.955H192.4l4.38-20.448h6.39c3.875,0,5.743,1.688,5.743,4.439,0,2.222-1.392,4.322-4.471,5.177m-3.7,1.63h-3.017l-1.361,6.419h3.254a4.721,4.721,0,0,0,2.785-.8,4.043,4.043,0,0,0,1.566-3.167c0-1.628-.8-2.456-3.227-2.456m1.57-8.373h-2.842l-1.153,5.563h2.962a3.95,3.95,0,0,0,2.628-.709,3.268,3.268,0,0,0,1.273-2.6c0-1.481-.71-2.249-2.868-2.249"/><path class="a" d="M220.949,3518.7l-1.065,5.224c-.34,1.592-.184,2.272.466,2.976l-2.347,1.75a2.631,2.631,0,0,1-.994-2.167,4.747,4.747,0,0,1-3.972,2.038c-2.06,0-3.444-1.386-3.444-4.205a10.994,10.994,0,0,1,2.794-7.494,7,7,0,0,1,5.248-2.143,7.838,7.838,0,0,1,4.1.99c-.232.733-.6,2.092-.786,3.031m-3.651-1.75a3.466,3.466,0,0,0-3.029,1.465,10.021,10.021,0,0,0-1.724,5.823c0,1.435.469,1.982,1.439,1.982,1.2,0,2.532-1.2,3.133-2.531l1.408-6.479a2.79,2.79,0,0,0-1.227-.26"/><path class="a" d="M234.871,3518.748l-2.011,9.455h-2.849l1.857-8.751a6.164,6.164,0,0,0,.181-1.276c0-.761-.337-1.046-1.041-1.046-.942,0-2.249.652-3.632,2.455l-1.829,8.618h-2.822l1.935-9.14a6.469,6.469,0,0,0,.052-3.4l2.664-1.1a4.416,4.416,0,0,1,.234,2.481,6.106,6.106,0,0,1,4.754-2.348,2.431,2.431,0,0,1,2.634,2.611,6.5,6.5,0,0,1-.127,1.434"/><path class="a" d="M246.227,3517.941a3.162,3.162,0,0,0-2.271-.968,2.857,2.857,0,0,0-2.142,1.074,11.309,11.309,0,0,0-1.825,5.953c0,1.565.7,2.349,1.959,2.349a4.736,4.736,0,0,0,3-1.385l1.043,1.8a7.041,7.041,0,0,1-4.676,1.75c-2.948,0-4.437-1.648-4.437-4.517a10.925,10.925,0,0,1,3.367-7.838,6.14,6.14,0,0,1,4.178-1.539,4.609,4.609,0,0,1,3.37,1.386Z"/><path class="a" d="M252.625,3528.517c-2.924,0-4.6-1.7-4.6-4.728,0-5.09,3.11-9.115,7.5-9.115,3.031,0,4.674,1.752,4.674,4.65,0,4.832-2.716,9.193-7.573,9.193m2.453-11.647c-2.608,0-3.972,4.176-3.972,7.179,0,1.595.761,2.3,2.04,2.3,2.563,0,3.948-3.916,3.948-7.129,0-1.779-.839-2.35-2.016-2.35"/><path class="a" d="M280.887,3519.029a9.055,9.055,0,0,1-5.328,1.391h-2.782l-1.657,7.782h-3.433l4.379-20.448h5.327c2.516,0,4.026.386,5.029,1.066a4.309,4.309,0,0,1,1.865,3.641,7.479,7.479,0,0,1-3.4,6.568m-3.435-8.493h-2.575l-1.505,7.1h2.66a3.973,3.973,0,0,0,3.162-1.033,5.091,5.091,0,0,0,1.423-3.463c0-1.687-.918-2.606-3.165-2.606"/><path class="a" d="M292.694,3517.6a1.663,1.663,0,0,0-.913-.207c-.913,0-1.933.707-3.086,2.323l-1.8,8.488h-2.847l1.877-8.828a7.131,7.131,0,0,0,.1-3.708l2.662-1.1a4.606,4.606,0,0,1,.209,2.584c1.2-1.513,2.669-2.479,3.949-2.479a2.532,2.532,0,0,1,1.1.208Z"/><path class="a" d="M297.315,3528.517c-2.923,0-4.6-1.7-4.6-4.728,0-5.09,3.107-9.115,7.5-9.115,3.026,0,4.672,1.752,4.672,4.65,0,4.832-2.717,9.193-7.573,9.193m2.456-11.647c-2.612,0-3.971,4.176-3.971,7.179,0,1.595.758,2.3,2.039,2.3,2.555,0,3.943-3.916,3.943-7.129,0-1.779-.837-2.35-2.011-2.35"/><path class="a" d="M321.537,3511.246a4.7,4.7,0,0,0-3.315-1.153,6,6,0,0,0-4.673,2.545c-1.688,2.16-2.665,6.27-2.665,8.761,0,2.927,1.479,4.464,4.145,4.464a7.128,7.128,0,0,0,3.992-1.387l1.212,2.246a10.837,10.837,0,0,1-6.123,1.835c-4.348,0-6.927-2.751-6.927-7.279a16.687,16.687,0,0,1,3.345-9.823,10.6,10.6,0,0,1,8.2-4.056,6.842,6.842,0,0,1,4.759,1.63Z"/><path class="a" d="M330.773,3517.6a1.671,1.671,0,0,0-.914-.207c-.911,0-1.934.707-3.081,2.323l-1.8,8.488H322.13l1.878-8.828a7.107,7.107,0,0,0,.1-3.708l2.667-1.1a4.716,4.716,0,0,1,.207,2.584c1.2-1.513,2.663-2.479,3.946-2.479a2.535,2.535,0,0,1,1.1.208Z"/><path class="a" d="M341.27,3520.943c-1.1,1.07-2.9,1.67-5.616,1.67-.733,0-1.358-.1-1.593-.1a9.687,9.687,0,0,0-.156,1.384,2.193,2.193,0,0,0,2.4,2.427,5.736,5.736,0,0,0,3.736-1.437l.885,1.776a7.9,7.9,0,0,1-5.376,1.882c-2.821,0-4.7-1.7-4.7-4.833a10.514,10.514,0,0,1,2.953-7.233,6.139,6.139,0,0,1,4.464-1.8c2.558,0,4.181,1.175,4.181,3.527a3.731,3.731,0,0,1-1.176,2.741m-3.373-4.128c-1.484,0-2.791,1.177-3.368,3.658.158,0,.709.077,1.152.077,1.592,0,2.69-.235,3.317-.861a1.784,1.784,0,0,0,.547-1.3,1.443,1.443,0,0,0-1.648-1.57"/><path class="a" d="M354.769,3523.606c-.605,2.795-.5,3.63-.132,4.259l-2.457.572a2.774,2.774,0,0,1-.5-1.907,4.923,4.923,0,0,1-3.887,1.932c-2.641,0-3.894-1.566-3.894-4.544a10.5,10.5,0,0,1,2.9-7.283,6.414,6.414,0,0,1,4.414-1.857,6.056,6.056,0,0,1,2.53.419c0-.13.237-1.329.343-1.774l.94-4.44,2.741.468Zm-3.659-6.5a3.169,3.169,0,0,0-2.4,1.2,10.271,10.271,0,0,0-1.8,5.668c0,1.433.522,2.192,1.6,2.192a4.51,4.51,0,0,0,3.342-2.352l1.328-6.188a3.354,3.354,0,0,0-2.064-.522"/><path class="a" d="M360.7,3528.2h-2.926l2.767-13.056,3-.443Zm2.164-15.118a1.921,1.921,0,0,1,.026-3.841,1.921,1.921,0,0,1-.026,3.841"/><path class="a" d="M372.156,3517.024h-2.53l-1.491,7.1a6.719,6.719,0,0,0-.154,1.281c0,.839.388,1.1,1.225,1.1a3.482,3.482,0,0,0,1.333-.261v1.773a7.345,7.345,0,0,1-2.743.549c-1.776,0-2.768-.888-2.768-2.219a9.542,9.542,0,0,1,.186-1.805l1.588-7.52h-1.486l.42-2.035h1.485a28.741,28.741,0,0,1,.86-3.211l3.058-.709c-.363,1.125-.808,2.665-1.072,3.92h3.163Z"/></g></svg>