<svg xmlns="http://www.w3.org/2000/svg" width="197.87" height="37.622" viewBox="0 0 197.87 37.622"><defs><style>.a{fill:#d40e14;}.b{fill:#ffd400;}.c{fill:#004f95;}.d{fill:#b70e77;}.e{fill:#00855a;}.f{fill:#ec6502;}</style></defs><path class="a" d="M442.839,765.96a3.2,3.2,0,0,1,2.669,3.373,5.613,5.613,0,0,1-1.82,3.906c-1.261,1.165-2.6,1.6-5.386,1.6h-5.338l3.591-16.764h5.24c3.178,0,4.706,1.382,4.706,3.638,0,1.821-1.14,3.543-3.663,4.246m-3.032,1.334h-2.476l-1.116,5.265h2.669a3.864,3.864,0,0,0,2.281-.655,3.308,3.308,0,0,0,1.285-2.6c0-1.334-.655-2.014-2.644-2.014m1.285-6.866h-2.329l-.947,4.562h2.426a3.242,3.242,0,0,0,2.16-.583,2.689,2.689,0,0,0,1.043-2.136c0-1.213-.583-1.844-2.353-1.844" transform="translate(-383.355 -745.213)"/><path class="a" d="M454.012,766.1l-.878,4.282c-.278,1.306-.15,1.863.387,2.441l-1.928,1.434a2.159,2.159,0,0,1-.814-1.776,3.893,3.893,0,0,1-3.254,1.67c-1.692,0-2.826-1.135-2.826-3.447a9.031,9.031,0,0,1,2.291-6.145,5.752,5.752,0,0,1,4.3-1.756,6.418,6.418,0,0,1,3.361.813c-.192.6-.492,1.714-.643,2.485m-3-1.435a2.851,2.851,0,0,0-2.485,1.2,8.242,8.242,0,0,0-1.413,4.776c0,1.177.386,1.626,1.178,1.626a3.344,3.344,0,0,0,2.569-2.077l1.155-5.31a2.277,2.277,0,0,0-1.005-.214" transform="translate(-380.995 -744.263)"/><path class="a" d="M463.62,766.154l-1.65,7.751h-2.333l1.519-7.173a5.016,5.016,0,0,0,.15-1.049c0-.622-.277-.856-.855-.856-.772,0-1.844.535-2.978,2.012l-1.5,7.066h-2.312l1.584-7.494a5.3,5.3,0,0,0,.041-2.784l2.185-.9a3.646,3.646,0,0,1,.192,2.034,5.014,5.014,0,0,1,3.9-1.927,2,2,0,0,1,2.163,2.142,5.581,5.581,0,0,1-.107,1.177" transform="translate(-379.192 -744.277)"/><path class="a" d="M470.989,765.483a2.6,2.6,0,0,0-1.863-.793,2.339,2.339,0,0,0-1.755.879,9.27,9.27,0,0,0-1.5,4.881c0,1.284.578,1.927,1.606,1.927a3.865,3.865,0,0,0,2.462-1.135l.856,1.477a5.774,5.774,0,0,1-3.833,1.435c-2.419,0-3.641-1.35-3.641-3.7a8.938,8.938,0,0,1,2.763-6.424,5.018,5.018,0,0,1,3.426-1.264,3.784,3.784,0,0,1,2.763,1.135Z" transform="translate(-377.249 -744.27)"/><path class="a" d="M474.7,774.149c-2.4,0-3.768-1.392-3.768-3.876,0-4.175,2.548-7.473,6.145-7.473a3.478,3.478,0,0,1,3.833,3.812c0,3.961-2.227,7.537-6.21,7.537m2.013-9.55c-2.142,0-3.255,3.426-3.255,5.888,0,1.307.621,1.885,1.671,1.885,2.1,0,3.233-3.212,3.233-5.846,0-1.456-.686-1.927-1.649-1.927" transform="translate(-375.718 -744.263)"/><path class="a" d="M495.175,767.32a7.42,7.42,0,0,1-4.367,1.14h-2.28l-1.359,6.382h-2.815l3.591-16.765h4.367a7.266,7.266,0,0,1,4.123.873,3.531,3.531,0,0,1,1.529,2.985,6.125,6.125,0,0,1-2.79,5.386m-2.814-6.963h-2.11l-1.237,5.823H491.2a3.266,3.266,0,0,0,2.6-.849,4.2,4.2,0,0,0,1.164-2.839c0-1.383-.752-2.135-2.6-2.135" transform="translate(-373.019 -745.213)"/><path class="a" d="M502.612,765.212a1.342,1.342,0,0,0-.75-.172c-.75,0-1.584.579-2.527,1.906l-1.477,6.959h-2.333l1.541-7.238a5.9,5.9,0,0,0,.085-3.04l2.184-.9a3.836,3.836,0,0,1,.172,2.12,4.629,4.629,0,0,1,3.233-2.035,2.039,2.039,0,0,1,.9.172Z" transform="translate(-370.772 -744.277)"/><path class="a" d="M505.209,774.149c-2.4,0-3.768-1.392-3.768-3.876,0-4.175,2.548-7.473,6.145-7.473a3.478,3.478,0,0,1,3.833,3.812c0,3.961-2.227,7.537-6.21,7.537m2.013-9.55c-2.142,0-3.255,3.426-3.255,5.888,0,1.307.621,1.885,1.671,1.885,2.1,0,3.234-3.212,3.234-5.846,0-1.456-.686-1.927-1.649-1.927" transform="translate(-369.582 -744.263)"/><path class="a" d="M523.083,760.987a3.845,3.845,0,0,0-2.717-.946,4.916,4.916,0,0,0-3.833,2.086,13.663,13.663,0,0,0-2.185,7.181c0,2.4,1.213,3.664,3.4,3.664a5.822,5.822,0,0,0,3.276-1.14l1,1.844a8.906,8.906,0,0,1-5.023,1.5c-3.566,0-5.677-2.256-5.677-5.968a13.67,13.67,0,0,1,2.741-8.055,8.68,8.68,0,0,1,6.72-3.323,5.624,5.624,0,0,1,3.906,1.334Z" transform="translate(-367.596 -745.262)"/><path class="a" d="M528.6,765.212a1.345,1.345,0,0,0-.75-.172c-.749,0-1.584.579-2.526,1.906l-1.477,6.959h-2.334l1.541-7.238a5.889,5.889,0,0,0,.085-3.04l2.185-.9a3.859,3.859,0,0,1,.17,2.12,4.626,4.626,0,0,1,3.234-2.035,2.038,2.038,0,0,1,.9.172Z" transform="translate(-365.544 -744.277)"/><path class="a" d="M536.012,767.937c-.9.878-2.376,1.371-4.6,1.371-.6,0-1.113-.085-1.306-.085a7.527,7.527,0,0,0-.129,1.135,1.8,1.8,0,0,0,1.969,1.991,4.706,4.706,0,0,0,3.063-1.178l.728,1.456a6.487,6.487,0,0,1-4.411,1.542,3.6,3.6,0,0,1-3.854-3.961,8.633,8.633,0,0,1,2.419-5.931,5.041,5.041,0,0,1,3.661-1.477c2.1,0,3.427.963,3.427,2.891a3.055,3.055,0,0,1-.965,2.247m-2.761-3.382c-1.22,0-2.291.963-2.761,3,.127,0,.578.064.942.064a3.806,3.806,0,0,0,2.719-.706,1.455,1.455,0,0,0,.449-1.07,1.181,1.181,0,0,0-1.349-1.285" transform="translate(-364.347 -744.263)"/><path class="a" d="M545.29,770.9c-.494,2.291-.407,2.977-.107,3.49l-2.013.471a2.245,2.245,0,0,1-.407-1.564,4.043,4.043,0,0,1-3.19,1.584c-2.162,0-3.19-1.284-3.19-3.725a8.62,8.62,0,0,1,2.377-5.975,5.263,5.263,0,0,1,3.619-1.521,4.979,4.979,0,0,1,2.077.344c0-.107.192-1.093.279-1.456l.77-3.641,2.249.386Zm-3-5.332a2.6,2.6,0,0,0-1.97.985,8.433,8.433,0,0,0-1.477,4.647c0,1.177.429,1.8,1.307,1.8a3.688,3.688,0,0,0,2.741-1.928L543.983,766a2.741,2.741,0,0,0-1.691-.429" transform="translate(-362.555 -745.045)"/><path class="a" d="M548.245,774.636h-2.4l2.27-10.706,2.462-.364Zm1.778-12.4a1.574,1.574,0,1,1,.022-3.148,1.574,1.574,0,0,1-.022,3.148" transform="translate(-360.651 -745.009)"/><path class="a" d="M556.647,765.222H554.57l-1.22,5.823a5.362,5.362,0,0,0-.127,1.05c0,.686.319.9,1.005.9a2.828,2.828,0,0,0,1.092-.214v1.456a6.021,6.021,0,0,1-2.247.449c-1.457,0-2.27-.728-2.27-1.82a7.922,7.922,0,0,1,.15-1.477l1.306-6.167h-1.22l.342-1.67h1.22a23.363,23.363,0,0,1,.708-2.634l2.5-.579c-.3.921-.663,2.185-.878,3.213h2.591Z" transform="translate(-359.654 -744.758)"/><path class="b" d="M409.791,774.74c-7.873-.752-14.841-4.531-17.424-8.891a38.931,38.931,0,0,0,1.493,3.779c.311.862.763,1.564.973,2.2,3.26,2.306,7,3.512,12.141,4,5.3.506,9.962-.142,13.638-1.9a31.22,31.22,0,0,1-10.821.811" transform="translate(-391.52 -743.65)"/><path class="b" d="M403.324,761.531a99.379,99.379,0,0,1-7.251-8.826c-.285.371-.6.807-.939,1.3a19.78,19.78,0,0,0-1.118,1.839c2.073,2.273,4.371,4.565,6.861,6.818a98.389,98.389,0,0,0,19.533,13.585,111.931,111.931,0,0,1-17.085-14.716" transform="translate(-391.189 -746.293)"/><path class="b" d="M412.689,757.366a60.405,60.405,0,0,0-5.946-9.835c-.3.032-.812.287-1.708.427a9.474,9.474,0,0,0-1.9.255,59.756,59.756,0,0,1,9.171,12.691,69.251,69.251,0,0,1,6.609,16.1c-.614-5.876-2.407-12.032-6.228-19.637" transform="translate(-389.354 -747.334)"/><path class="c" d="M411.685,784.694c-9.848,0-17.831-7.718-17.831-17.242s7.933-16.966,17.783-16.966c9.655,0,17.567,7.146,17.869,16.412.01-.239.016-.479.016-.719a18.893,18.893,0,1,0-13.091,17.9,18.474,18.474,0,0,1-4.746.618" transform="translate(-391.662 -747.367)"/><path class="d" d="M400.809,757.8c6.748-6.879,17.246-7.4,23.448-1.164a15.458,15.458,0,0,1,4,14.486c1.754-5.864.68-12.512-3.774-16.991-6.524-6.561-17.527-6.15-24.275.731a17.851,17.851,0,0,0-4.75,16.43,18.364,18.364,0,0,1,5.352-13.492" transform="translate(-390.986 -746.949)"/><path class="e" d="M427.241,766.833c-.055-4.139-1.637-7.968-4.548-9.972-5.628-3.872-14.373-.844-19.822,7.117a21.386,21.386,0,0,0-3.978,12.65c-1.248-4.659-.22-10.434,3.206-15.438,5.451-7.96,14.9-10.951,21.1-6.682,3.675,2.528,5.462,7.073,5.113,11.985,0,0-.11,1.415-.243,2.033-.126.586-.452,1.858-.581,2.233a33.79,33.79,0,0,1-.251-3.926" transform="translate(-390.31 -746.322)"/><path class="f" d="M407.7,763.418c-5.558,5.894-6.815,13.734-2.809,17.511a6.649,6.649,0,0,0,.557.471c-3.529-3.528-2.468-10.284,2.412-15.556,4.485-4.848,12.117-6.965,15.81-3.482,3.255,3.071,2.819,8.965-.752,13.949,4.949-5.786,5.929-13.11,2.1-16.722-4.007-3.778-11.76-2.064-17.317,3.829" transform="translate(-389.473 -745.312)"/><path class="a" d="M411.805,767.924c-3.742,3.25-4.992,7.935-2.794,10.467,1.722,1.983,5.051,2.054,8.21.428-2.657,1.224-5.4,1.074-6.858-.608-1.951-2.245-.882-6.365,2.383-9.2s7.5-3.319,9.446-1.074c1.462,1.682,1.229,4.417-.355,6.876,2.05-2.9,2.445-6.206.723-8.188-2.2-2.531-7.013-1.948-10.754,1.3" transform="translate(-388.391 -743.811)"/></svg>