<svg xmlns="http://www.w3.org/2000/svg" xmlns:xlink="http://www.w3.org/1999/xlink" width="1920" height="631" viewBox="0 0 1920 631"><defs><style>.a{fill:url(#a);}.b{clip-path:url(#c);}.c{clip-path:url(#e);}.d{fill:url(#f);}</style><linearGradient id="a" x1="0.5" x2="0.5" y2="1" gradientUnits="objectBoundingBox"><stop offset="0" stop-color="#f4f4f4"/><stop offset="1" stop-color="#f4f4f4" stop-opacity="0"/></linearGradient><clipPath id="c"><rect class="a" width="1920" height="631" transform="translate(0 7062)"/></clipPath><clipPath id="e"><rect class="a" width="1920" height="541" transform="translate(0 4719)"/></clipPath><linearGradient id="f" x1="0.5" x2="0.5" y2="1" gradientUnits="objectBoundingBox"><stop offset="0" stop-color="#fff"/><stop offset="1" stop-color="#fff" stop-opacity="0"/></linearGradient></defs><g class="b" transform="translate(0 -7062)"><g transform="translate(0 2864)"><rect class="a" width="1920" height="631" transform="translate(0 4198)"/><g class="c" transform="translate(0 -640)"><path class="d" d="M2219.063,59.829h-86.557L2040.9,338.255c-17.311,51.934-24.524,80.787-30.295,104.59h-1.443c-4.328-24.525-12.983-60.59-25.967-100.262L1893.031,59.829h-90.885L1970.211,561.14h77.18Zm314.492,338.295v-16.59c0-85.115-15.869-129.836-47.606-158.688-31.017-28.131-64.2-37.508-100.262-37.508-46.164,0-82.229,15.148-111.8,49.049-31.738,36.065-45.443,78.623-45.443,142.819,0,116.852,64.918,191.147,168.065,191.147,49.049,0,93.049-15.869,131.278-48.328L2496.767,471.7c-27.41,23.8-56.984,36.065-90.885,36.065-71.41,0-90.164-53.377-90.164-103.869v-5.771ZM2451.325,339.7H2316.44c0-59.147,24.525-94.492,69.246-94.492C2425.358,245.206,2451.325,280.55,2451.325,339.7Zm370.753-150.033c-9.377-4.328-16.59-5.77-28.131-5.77-35.344,0-64.2,18.754-93.049,58.426,0-20.2-5.049-41.115-13.7-57.7l-72.852,18.754c7.934,22.361,12.984,51.934,12.984,98.1V558.976h79.344V312.288c7.213-29.574,35.344-54.1,68.525-54.1,8.656,0,14.427,2.164,22.361,5.049Zm343.344,369.311c-7.213-18.033-11.541-54.82-11.541-126.951V39.632L3075.259,27.37V160.813c0,28.131,1.442,54.1,2.164,59.869-22.361-23.082-47.606-33.18-78.623-33.18-88,0-151.475,77.9-151.475,192.59,0,113.967,56.262,186.819,149.312,186.819,36.065,0,64.918-11.541,89.442-36.066,2.164,15.148,2.885,20.2,6.492,28.131Zm-90.163-93.049c-10.82,18.033-34.623,34.623-64.2,34.623-59.869,0-75.738-40.393-75.738-121.18,0-88,23.082-128.393,73.574-128.393,26.688,0,48.327,10.1,66.36,29.574Zm484.72-67.8v-16.59c0-85.115-15.869-129.836-47.606-158.688-31.016-28.131-64.2-37.508-100.262-37.508-46.163,0-82.229,15.148-111.8,49.049-31.737,36.065-45.442,78.623-45.442,142.819,0,116.852,64.918,191.147,168.065,191.147,49.049,0,93.049-15.869,131.278-48.328L3523.191,471.7c-27.41,23.8-56.983,36.065-90.885,36.065-71.409,0-90.164-53.377-90.164-103.869v-5.771ZM3477.749,339.7H3342.864c0-59.147,24.524-94.492,69.246-94.492C3451.782,245.206,3477.749,280.55,3477.749,339.7Zm427.737,105.311c0-42.557-19.475-82.951-93.049-101.7l-45.443-11.541c-36.787-9.377-49.048-20.918-49.048-43.279,0-28.131,21.639-46.885,55.541-46.885,28.853,0,55.541,8.656,89.442,26.688l25.967-54.82c-31.016-16.59-70.688-31.738-120.458-31.738-80.787,0-135.606,47.607-135.606,116.131,0,51.213,32.459,88.721,87.278,100.262l44,9.377c41.115,8.656,59.148,23.082,59.148,51.213,0,30.3-24.525,51.213-59.148,51.213-41.114,0-85.836-19.475-118.295-38.229l-28.131,56.983c46.885,25.967,95.213,40.393,139.934,40.393C3845.618,569.074,3905.486,518.582,3905.486,445.009Z" transform="translate(-1894.145 4637.63)"/></g></g></g></svg>