<svg xmlns="http://www.w3.org/2000/svg" width="586.393" height="579.491" viewBox="0 0 586.393 579.491"><defs><style>.a{fill:#f2f3f4;}</style></defs><path class="a" d="M660.744,902.793c-121.273-11.581-228.6-69.785-268.377-136.943,2.073,12.58,16.412,40.092,23,58.2,4.791,13.285,11.748,24.089,14.985,33.839,50.212,35.522,107.825,54.1,187.01,61.647,81.644,7.788,153.449-2.185,210.061-29.233-49.674,12.655-104.4,18.407-166.676,12.487" transform="translate(-379.324 -423.913)"/><path class="a" d="M537.4,888.651A1530.718,1530.718,0,0,1,425.707,752.705c-4.385,5.717-9.288,12.434-14.467,20.035a304.594,304.594,0,0,0-17.225,28.325c31.932,35.006,67.324,70.323,105.677,105.012,109.287,98.832,215.761,162.975,300.865,209.25C723.834,1058.861,630.866,990.147,537.4,888.651" transform="translate(-350.482 -653.946)"/><path class="a" d="M550.257,899.016c-31.21-62.127-55.632-103.235-91.58-151.484-4.68.5-12.507,4.421-26.309,6.584-10.36,1.63-20.87.557-29.23,3.924,52.431,55.039,94.725,112.615,141.255,195.482,52.95,94.225,79.5,169.378,101.793,247.97-9.454-90.506-37.076-185.326-95.928-302.476" transform="translate(-190.82 -744.496)"/><path class="a" d="M700.074,1322.326c-151.691,0-274.648-118.888-274.648-265.584,0-146.674,122.2-261.328,273.908-261.328,148.713,0,270.578,110.065,275.241,252.8.148-3.68.241-7.382.241-11.082,0-160.052-130.544-289.763-291.578-289.763-161.015,0-291.576,129.711-291.576,289.763,0,160.017,130.561,289.728,291.576,289.728a292.911,292.911,0,0,0,89.934-14.058,284.564,284.564,0,0,1-73.1,9.526" transform="translate(-391.662 -747.367)"/><path class="a" d="M484.138,878.115C588.077,772.16,749.778,764.131,845.317,860.188c58.353,58.686,81.516,147.215,61.591,223.124,27.012-90.321,10.472-192.726-58.131-261.716-100.5-101.053-269.967-94.727-373.906,11.267C406.416,902.65,381.81,999.242,401.7,1085.94c-2.867-72.8,24.92-149.176,82.44-207.826" transform="translate(-332.837 -710.96)"/><path class="a" d="M842.893,972.366c-.851-63.754-25.217-122.735-70.046-153.6-86.7-59.647-221.383-13-305.323,109.62-43.458,63.476-63.755,133.652-61.275,194.854-19.223-71.767-3.386-160.72,49.38-237.8,83.957-122.606,229.487-168.674,325.063-102.921,56.613,38.946,84.125,108.952,78.759,184.6,0,0-1.7,21.793-3.736,31.322-1.943,9.03-6.956,28.62-8.955,34.393-1.981,5.736-3.867-60.48-3.867-60.48" transform="translate(-274.041 -656.424)"/><path class="a" d="M481.9,847.462C396.3,938.248,376.929,1059,438.631,1117.191a102.544,102.544,0,0,0,8.585,7.251c-54.357-54.336-38.02-158.406,37.15-239.607C553.448,810.164,671,777.546,727.895,831.2c50.138,47.309,43.422,138.092-11.581,214.853,76.225-89.12,91.321-201.939,32.321-257.573-61.719-58.186-181.143-31.785-266.73,58.982" transform="translate(-201.15 -568.575)"/><path class="a" d="M467.659,809.351c-57.631,50.064-76.891,122.218-43.034,161.219,26.53,30.545,77.8,31.636,126.454,6.587-40.923,18.849-83.142,16.538-105.64-9.362-30.045-34.578-13.58-98.039,36.707-141.756,50.342-43.7,115.465-51.12,145.492-16.541,22.516,25.9,18.926,68.03-5.476,105.918,31.581-44.677,37.668-95.592,11.138-126.12-33.838-38.983-108.029-30.009-165.641,20.055" transform="translate(-106.999 -437.94)"/></svg>